
<svg version="1.1" xmlns="http://www.w3.org/2000/svg" xmlns:xlink="http://www.w3.org/1999/xlink" viewBox="0 0 13 13">
<symbol viewBox="-9 -9 18 18">
	<g>
		<g>
			<linearGradient id="SVGID_1_" gradientUnits="userSpaceOnUse" x1="0" y1="9" x2="-7.868050e-07" y2="-9">
				<stop  offset="0" style="stop-color:#009DFF"/>
				<stop  offset="1" style="stop-color:#0075BE"/>
			</linearGradient>
			<path style="fill-rule:evenodd;clip-rule:evenodd;fill:url(#SVGID_1_);" d="M6.001,9L6.001,9H-6c-1.657,0-3-1.344-3-3V-6
				c0-1.656,1.343-3,3-3H6h0.001C7.656-9,9-7.656,9-6V6C9,7.656,7.656,9,6.001,9z M8-6c0-1.105-0.896-2-2-2H-6c-1.104,0-2,0.895-2,2
				V6c0,1.103,0.896,2,2,2H6c1.104,0,2-0.897,2-2V-6z"/>
			<linearGradient id="SVGID_2_" gradientUnits="userSpaceOnUse" x1="0" y1="8" x2="-6.993822e-07" y2="-8">
				<stop  offset="0" style="stop-color:#FFFFFF"/>
				<stop  offset="1" style="stop-color:#CFCFCF"/>
			</linearGradient>
			<path style="opacity:0.7;fill-rule:evenodd;clip-rule:evenodd;fill:url(#SVGID_2_);" d="M6,8H-6c-1.104,0-2-0.897-2-2V-6l0,0
				c0-1.105,0.896-2,2-2l0,0H6l0,0c1.104,0,2,0.895,2,2l0,0V6C8,7.103,7.104,8,6,8z"/>
		</g>
		<polygon style="fill:#333333;" points="2.828,-4.243 -4.243,2.828 -2.829,4.242 4.242,-2.831 		"/>
		<polygon style="fill:#333333;" points="-4.243,-2.828 2.828,4.242 4.242,2.828 -2.829,-4.242 		"/>
	</g>
</symbol>
<use xlink:href="#Panel_x5F_CloseButtonOver"  width="18" height="18" x="-9" y="-9" transform="matrix(3.6356 0 0 -3.6334 32.7202 33.2993)" style="overflow:visible;"/>
</svg>
