
<svg version="1.1"
	 xmlns="http://www.w3.org/2000/svg" xmlns:xlink="http://www.w3.org/1999/xlink"
	 viewBox="0 0 912 150" style="background-color:#ED1944;" xml:space="preserve">
<rect id="_912_x_150" width="912" height="150"/>
<g id="outlined_text">
	<path id="The_biggest_Clearance_savings_of_the_season." d="M202.47,69.33c1.3,0,1.71,0.84,1.57,2.23l-0.22,1.88
		c0.769-0.05,1.541-0.05,2.31,0c0.19-1.64,0.82-5.02,1.13-6.65c-0.86,0.02-1.9,0.12-4.43,0.12h-7.46c-2.47,0-3.48-0.08-4.45-0.12
		c-0.14,1.63-0.6,5.01-0.89,6.65c0.779-0.05,1.561-0.05,2.34,0l0.41-1.88c0.31-1.46,0.93-2.23,2.229-2.23h1.5
		c-0.39,2.98-1.229,8.859-1.62,10.49c-0.087,0.812-0.818,1.401-1.631,1.313c-0.033-0.003-0.066-0.008-0.099-0.014h-0.94
		c-0.02,0.36-0.24,1.94-0.33,2.33c0,0,3-0.05,4.69-0.05s4.67,0.05,4.67,0.05c0.04-0.39,0.24-1.97,0.33-2.33h-0.96
		c-0.576,0.142-1.158-0.21-1.3-0.786c-0.042-0.168-0.042-0.345,0-0.514c0.12-1.65,1.08-7.51,1.59-10.49H202.47L202.47,69.33z
		 M220.16,78.859c-0.32,1.951-0.75,3.311-1.35,3.311c-0.65,0-0.51-0.859-0.1-2.42l0.77-3.07c0.75-3.03,0.27-4.88-2.26-4.88
		c-1.632-0.004-3.122,0.93-3.83,2.4l0.77-3.91c0.24-1.129,0.388-2.276,0.44-3.43c-1.25,0.05-3.95,0.05-5.2,0
		c0,0.31-0.1,1.58-0.15,1.9h0.49c0.89,0,0.91,0.55,0.81,1.271c-0.55,3.24-1.99,10.18-2.71,13.39c0,0,1.2-0.07,1.87-0.07
		c0.65,0,1.85,0.07,1.85,0.07l0.73-3.62c1.13-4.97,2.02-6.24,3.08-6.24c0.6,0,0.84,0.76,0.19,3.09l-0.75,2.689
		c-0.77,2.76-0.29,4.561,2.29,4.561c2.6,0,3.73-2.471,3.99-4.99L220.16,78.859z M231.05,79.34c-0.43,1.92-1.15,2.471-2.28,2.471
		c-1.23,0-1.57-0.881-1.11-3.311c2.82,0.07,5.61-0.36,6.02-3.02c0.33-2.04-0.65-3.68-3.64-3.68c-3.15,0-5.48,1.97-6.25,6.05
		c-0.77,4.23,0.53,6.051,4.13,6.051c3.35,0,4.67-1.75,5.23-4.44C232.47,79.439,231.46,79.37,231.05,79.34L231.05,79.34z
		 M229.9,73.29c0.74,0,0.79,1.15,0.5,2.399c-0.41,1.73-1.13,2.021-2.6,2.021C228.62,73.89,229.06,73.29,229.9,73.29L229.9,73.29z
		 M244.19,68.76c0.89,0,0.91,0.52,0.79,1.27c-0.53,3.24-2,10.15-2.69,13.39c0.485-0.05,0.975-0.05,1.46,0
		c0.513-0.945,1.183-1.798,1.98-2.52c0,1.709,0.65,3,2.88,3c2.53,0,4.89-1.94,5.56-7.15c0.44-3.34-0.81-4.95-2.79-4.95
		c-1.557,0.024-2.953,0.966-3.56,2.4l0.77-3.93c0.253-1.12,0.397-2.262,0.43-3.41c-1.25,0.05-3.92,0.05-5.17,0l-0.14,1.9H244.19z
		 M249.58,73.56c0.84,0,0.96,0.67,0.5,3.24c-0.67,3.96-1.56,5.351-2.52,5.351c-1.01,0-1.09-0.961-0.65-3.311
		C247.56,75.19,248.59,73.56,249.58,73.56L249.58,73.56z M264.23,68.3c0.183-0.994-0.475-1.949-1.469-2.132
		c-0.142-0.026-0.287-0.036-0.431-0.028c-1.279-0.07-2.384,0.885-2.5,2.16c-0.186,0.98,0.459,1.925,1.439,2.11
		c0.135,0.025,0.273,0.036,0.411,0.03C262.96,70.506,264.073,69.572,264.23,68.3L264.23,68.3z M262.98,76.29
		c0.67-2.76,0.02-4.49-2.41-4.49c-2.36,0-3.49,2.48-3.78,5.07l0.94,0.05c0.22-1.92,0.72-3.36,1.49-3.36c0.36,0,0.44,0.67,0.05,1.99
		l-1.1,4.011c-0.82,2.949,0.09,4.34,2.33,4.34c2.67,0,3.73-2.59,3.95-4.99l-0.94-0.051c-0.27,1.99-0.7,3.291-1.28,3.291
		c-0.53,0-0.62-0.5-0.24-2.041L262.98,76.29z M273.11,82.029c-0.63,3.031-0.87,5.471-3.49,5.471c-0.715,0.058-1.422-0.186-1.95-0.67
		c0.775,0.217,1.58-0.234,1.798-1.01c0.013-0.047,0.024-0.094,0.032-0.141c0.127-0.65-0.298-1.28-0.948-1.407
		c-0.125-0.024-0.254-0.028-0.382-0.013c-0.806-0.047-1.528,0.493-1.71,1.28c-0.38,1.34,0.61,2.729,3.45,2.729
		c3.34,0,6.08-1.65,6.85-6.119c0.44-2.521,1.47-7.73,2.07-10.271c-0.29,0.02-1.37,0.02-1.63,0c-0.361,0.991-1.04,1.835-1.93,2.4
		c-0.09-1.52-0.82-2.48-2.86-2.48c-2.36,0-4.86,2.14-5.51,7.13c-0.46,3.63,0.84,4.971,2.77,4.971
		c1.575-0.035,2.977-1.008,3.56-2.471L273.11,82.029z M271.47,82.15c-0.84,0-0.99-0.67-0.53-3.261c0.7-3.97,1.56-5.33,2.55-5.33
		c0.99,0,1.08,0.96,0.65,3.31C273.49,80.52,272.46,82.15,271.47,82.15L271.47,82.15z M286.36,82.029
		c-0.62,3.031-0.86,5.471-3.49,5.471c-0.714,0.054-1.419-0.188-1.95-0.67c0.772,0.219,1.577-0.229,1.796-1.002
		c0.014-0.049,0.025-0.098,0.034-0.148c0.134-0.643-0.278-1.271-0.92-1.405c-0.131-0.027-0.267-0.032-0.399-0.015
		c-0.806-0.047-1.529,0.493-1.71,1.28c-0.38,1.34,0.6,2.729,3.44,2.729c3.35,0,6.09-1.65,6.86-6.119
		c0.43-2.521,1.47-7.73,2.07-10.271c-0.29,0.02-1.37,0.02-1.64,0c-0.353,0.992-1.029,1.838-1.92,2.4c-0.1-1.52-0.82-2.48-2.87-2.48
		c-2.35,0-4.86,2.14-5.51,7.13c-0.45,3.63,0.85,4.971,2.77,4.971c1.576-0.032,2.979-1.006,3.56-2.471L286.36,82.029z M284.73,82.15
		c-0.85,0-0.99-0.67-0.53-3.261c0.689-3.97,1.56-5.33,2.55-5.33s1.08,0.96,0.65,3.31C286.75,80.52,285.71,82.15,284.73,82.15
		L284.73,82.15z M301.13,79.34c-0.43,1.92-1.15,2.47-2.28,2.47c-1.23,0-1.57-0.88-1.11-3.31c2.82,0.07,5.61-0.36,6.02-3.021
		c0.33-2.04-0.65-3.68-3.64-3.68c-3.15,0-5.48,1.97-6.25,6.05c-0.77,4.23,0.53,6.051,4.14,6.051c3.34,0,4.66-1.75,5.22-4.44
		C302.55,79.439,301.54,79.37,301.13,79.34L301.13,79.34z M299.98,73.29c0.75,0,0.79,1.15,0.5,2.399
		c-0.4,1.73-1.13,2.021-2.59,2.021C298.7,73.89,299.14,73.29,299.98,73.29L299.98,73.29z M312.22,72.79
		c0.623-0.006,1.238,0.142,1.79,0.43c-0.584,0.011-1.088,0.413-1.229,0.98c-0.195,0.565,0.105,1.181,0.67,1.375
		c0.17,0.059,0.353,0.074,0.53,0.045c0.725,0.067,1.386-0.418,1.54-1.13c0.34-1.56-1.08-2.69-3.78-2.69c-2.72,0-4.47,1.35-5,2.96
		c-0.68,2.04-0.03,3.67,2.65,4.58c1.92,0.65,2.21,1.37,1.99,2.23c-0.21,0.89-1.22,1.279-2.52,1.279
		c-0.77,0.039-1.534-0.156-2.19-0.56c0.64,0.069,1.24-0.319,1.44-0.931c0.215-0.586-0.086-1.234-0.672-1.449
		c-0.168-0.062-0.35-0.082-0.527-0.061c-0.765-0.041-1.448,0.474-1.62,1.221c-0.4,1.75,1.26,2.829,4.17,2.829
		c2.69,0,4.52-1.1,5.15-2.97c0.689-2.09,0.12-3.891-2.82-4.83c-1.92-0.62-2.31-1.3-1.97-2.26
		C310.03,73.27,310.78,72.79,312.22,72.79L312.22,72.79z M323.48,78.859c-0.16,2.09-0.72,3.291-1.25,3.291
		c-0.65,0-0.67-0.721-0.31-2.9l1.06-5.811l2.26,0.021l0.17-1.22l-2.22,0.04c0.2-1.05,0.7-3.38,0.85-3.91h-1.25
		c-0.82,2.47-1.59,3.87-4.62,3.87l-0.12,1.22l0.96-0.021c-0.34,1.92-1.06,5.11-1.3,6.53c-0.39,2.351,0.22,3.931,2.77,3.931
		c2.59,0,3.73-2.041,3.94-4.99L323.48,78.859z M343.04,66.35c-4.66,0-7.96,2.72-8.9,8.74c-0.91,6.32,1.78,8.91,7,8.91
		c4.94,0,7.29-2.381,8.09-7.061c-0.1,0.03-0.96,0.051-1.52,0.051c-0.53,0-1.37-0.021-1.47-0.051c-0.53,2.881-1.85,4.471-4.54,4.471
		c-1.98,0-3.47-1.061-2.68-6.32c0.73-4.75,2.12-6.29,4.55-6.29c2.48,0,3.32,1.61,2.94,4.16c0.12,0,1.11-0.05,1.44-0.05
		c0.36,0,1.23,0.05,1.35,0.05c0.144-2.134,0.581-4.237,1.3-6.25c-0.655,0.05-1.314,0.05-1.97,0c-0.17,0.97-0.75,1.13-1.54,0.7
		C345.854,66.713,344.459,66.348,343.04,66.35L343.04,66.35z M357.98,69.86c0.223-0.984,0.331-1.991,0.32-3
		c-1.21,0.05-3.83,0.05-5.03,0c-0.03,0.31-0.17,1.58-0.24,1.9h0.45c0.89,0,0.97,0.55,0.82,1.27c-0.38,2.23-1.25,6.77-1.85,9.291
		c-0.75,3.31-0.07,4.58,2.14,4.58c2.43,0,3.63-2.471,3.85-4.99l-0.94-0.051c-0.24,1.971-0.72,3.311-1.3,3.311
		c-0.5,0-0.55-0.48-0.21-2.28C356.49,77.23,357.33,73.03,357.98,69.86L357.98,69.86z M368.38,79.34c-0.44,1.92-1.16,2.47-2.29,2.47
		c-1.23,0-1.56-0.88-1.11-3.31c2.82,0.069,5.61-0.36,6.02-3.021c0.34-2.04-0.65-3.68-3.63-3.68c-3.16,0-5.49,1.97-6.26,6.05
		c-0.77,4.23,0.53,6.05,4.14,6.05c3.34,0,4.67-1.75,5.22-4.439C369.8,79.439,368.79,79.37,368.38,79.34L368.38,79.34z M367.22,73.29
		c0.75,0,0.8,1.15,0.51,2.4c-0.41,1.73-1.13,2.021-2.6,2.021C365.95,73.89,366.38,73.29,367.22,73.29L367.22,73.29z M386.04,78.91
		l-0.94-0.051c-0.27,1.95-0.75,3.311-1.33,3.311c-0.41,0-0.43-0.62-0.16-2.4c0.28-1.82,1.08-5.71,1.51-7.53
		c-0.36,0.02-1.71,0.02-2.07,0c-0.415,0.669-0.935,1.267-1.54,1.77c-0.127-1.356-1.331-2.353-2.688-2.225
		c-0.041,0.004-0.082,0.009-0.122,0.015c-2.36,0-4.86,2.14-5.51,7.13c-0.46,3.63,0.79,4.97,2.72,4.97
		c1.679-0.04,3.168-1.091,3.77-2.659c-0.12,1.92,0.68,2.659,2.43,2.659C384.38,83.9,385.77,81.91,386.04,78.91L386.04,78.91z
		 M377.76,82.149c-0.84,0-0.99-0.67-0.53-3.26c0.7-3.97,1.56-5.33,2.55-5.33c0.99,0,1.08,0.96,0.65,3.31
		C379.78,80.52,378.74,82.15,377.76,82.149L377.76,82.149z M395.25,75.16c-0.233,0.759,0.194,1.563,0.953,1.796
		c0.189,0.058,0.39,0.076,0.587,0.054c1.13,0,1.97-0.721,2.21-2.4c0.24-1.82-0.6-2.81-2.09-2.81c-1.311,0.037-2.461,0.881-2.89,2.12
		c0.009-1.167-0.93-2.12-2.097-2.129c-0.071,0-0.143,0.002-0.213,0.009c-2.48,0-3.56,2.6-3.82,5.069l0.93,0.051
		c0.22-1.92,0.75-3.36,1.47-3.36c0.48,0,0.29,0.84-0.05,2.54c-0.36,1.75-1.13,5.59-1.54,7.35c0,0,1.21-0.05,1.86-0.05
		c0.67,0,1.85,0.05,1.85,0.05c0.12-0.75,1.13-5.55,1.39-6.8c0.61-2.76,1.59-3.43,2.58-3.43c0.443-0.031,0.842,0.267,0.939,0.7
		c-0.899-0.238-1.821,0.299-2.059,1.199C395.257,75.132,395.253,75.146,395.25,75.16L395.25,75.16z M413.25,78.91l-0.94-0.051
		c-0.27,1.95-0.75,3.311-1.329,3.311c-0.41,0-0.431-0.62-0.16-2.4c0.279-1.82,1.08-5.71,1.51-7.53c-0.36,0.02-1.71,0.02-2.07,0
		c-0.418,0.667-0.938,1.264-1.54,1.77c-0.128-1.356-1.331-2.353-2.688-2.225c-0.041,0.004-0.082,0.009-0.122,0.015
		c-2.36,0-4.86,2.14-5.51,7.13c-0.461,3.63,0.789,4.97,2.709,4.97c1.684-0.037,3.177-1.089,3.78-2.659
		c-0.12,1.92,0.681,2.659,2.431,2.659C411.59,83.9,412.98,81.91,413.25,78.91L413.25,78.91z M404.97,82.149
		c-0.84,0-0.99-0.67-0.53-3.26c0.7-3.97,1.561-5.33,2.551-5.33c0.989,0,1.08,0.96,0.649,3.31
		C406.99,80.52,405.95,82.15,404.97,82.149L404.97,82.149z M416.03,76.92c0.22-1.97,0.75-3.36,1.399-3.36
		c0.48,0,0.431,0.6,0.101,2.32c-0.341,1.81-1.181,5.72-1.62,7.54c0,0,1.21-0.07,1.859-0.07c0.67,0,1.851,0.07,1.851,0.07
		l0.649-3.141c1.11-5.38,2.09-6.72,3.181-6.72c0.569,0,0.93,0.62,0.21,3.09l-0.79,2.69c-0.771,2.689-0.15,4.56,2.31,4.56
		c2.601,0,3.75-2.47,3.971-4.989l-0.94-0.051c-0.26,1.971-0.7,3.311-1.28,3.311s-0.6-0.641-0.16-2.32l0.84-3.17
		c0.791-3.03,0.24-4.88-2.31-4.88c-1.794,0.025-3.392,1.137-4.04,2.81c0.02-1.56-0.53-2.81-2.34-2.81c-2.48,0-3.561,2.6-3.82,5.069
		L416.03,76.92z M435.95,83.899c3.21,0,4.75-1.75,5.3-4.439c-0.51,0-1.689-0.091-2.09-0.12c-0.391,1.75-1.09,2.47-2.17,2.47
		c-1.28,0-1.76-0.79-1.061-4.03c0.84-3.89,1.61-4.51,2.91-4.51c0.504-0.055,0.991,0.203,1.23,0.65
		c-0.852-0.159-1.679,0.377-1.881,1.22c-0.235,0.766,0.194,1.578,0.96,1.813c0.188,0.059,0.386,0.077,0.581,0.057
		c1.25,0,2.05-0.79,2.119-2.3c0.07-1.71-1.01-2.91-3.66-2.91c-3.17,0-5.479,1.97-6.279,6.05C431.17,82.05,432.51,83.9,435.95,83.899
		L435.95,83.899z M451.47,79.34c-0.43,1.92-1.149,2.47-2.28,2.47c-1.229,0-1.569-0.88-1.109-3.31c2.82,0.069,5.609-0.36,6.02-3.021
		c0.33-2.04-0.649-3.68-3.64-3.68c-3.15,0-5.479,1.97-6.25,6.05c-0.771,4.23,0.53,6.05,4.13,6.05c3.35,0,4.67-1.75,5.23-4.44
		C452.89,79.439,451.88,79.37,451.47,79.34L451.47,79.34z M450.32,73.29c0.739,0,0.79,1.15,0.5,2.4
		c-0.41,1.73-1.131,2.02-2.601,2.02C449.04,73.89,449.48,73.29,450.32,73.29L450.32,73.29z M469.54,72.79
		c0.62-0.007,1.231,0.14,1.78,0.43c-0.585,0.011-1.089,0.413-1.23,0.98c-0.194,0.566,0.107,1.183,0.674,1.376
		c0.172,0.06,0.356,0.074,0.536,0.043c0.726,0.067,1.387-0.417,1.54-1.129c0.33-1.56-1.09-2.69-3.78-2.69
		c-2.72,0-4.479,1.35-5.01,2.96c-0.67,2.04-0.02,3.67,2.65,4.58c1.93,0.65,2.21,1.369,2,2.229c-0.22,0.89-1.23,1.28-2.53,1.28
		c-0.77,0.037-1.532-0.158-2.189-0.561c0.641,0.067,1.243-0.318,1.449-0.93c0.214-0.588-0.09-1.238-0.679-1.451
		c-0.17-0.062-0.352-0.082-0.531-0.059c-0.761-0.037-1.44,0.477-1.609,1.22c-0.41,1.75,1.25,2.83,4.159,2.83
		c2.7,0,4.53-1.101,5.15-2.97c0.7-2.09,0.12-3.891-2.81-4.83c-1.931-0.62-2.311-1.3-1.98-2.26
		C467.35,73.27,468.1,72.79,469.54,72.79L469.54,72.79z M487.83,78.91l-0.94-0.051c-0.27,1.95-0.75,3.311-1.329,3.311
		c-0.41,0-0.431-0.62-0.16-2.4c0.279-1.82,1.08-5.71,1.51-7.53c-0.36,0.021-1.71,0.021-2.07,0c-0.414,0.669-0.935,1.267-1.54,1.771
		c-0.128-1.356-1.331-2.353-2.688-2.225c-0.041,0.004-0.082,0.009-0.122,0.015c-2.36,0-4.86,2.14-5.51,7.13
		c-0.461,3.63,0.789,4.97,2.72,4.97c1.68-0.041,3.168-1.091,3.77-2.66c-0.12,1.921,0.681,2.66,2.431,2.66
		C486.17,83.9,487.561,81.91,487.83,78.91L487.83,78.91z M479.55,82.149c-0.84,0-0.99-0.67-0.53-3.26
		c0.7-3.97,1.561-5.33,2.551-5.33c0.989,0,1.08,0.96,0.649,3.31C481.57,80.52,480.53,82.15,479.55,82.149L479.55,82.149z
		 M490.66,76.92c0.22-1.92,0.72-3.36,1.47-3.36c0.7,0,0.31,1.17,0.021,2.351l-0.791,3.189c-0.75,3.07-0.26,4.8,2.57,4.8
		c4.34,0,6.29-5.28,6.79-8.57c0.36-2.3-0.069-3.5-1.37-3.53c-0.849-0.034-1.566,0.621-1.609,1.47
		c-0.177,0.715,0.26,1.437,0.975,1.613c0.129,0.032,0.263,0.044,0.395,0.037c0.081,0.004,0.162-0.002,0.24-0.02
		c0.01,0.546-0.03,1.092-0.12,1.63c-0.409,2.67-1.729,5.62-3.439,5.62c-1.061,0-1.04-0.94-0.51-2.979l0.699-2.66
		c0.75-2.74,0.101-4.71-2.43-4.71c-2.479,0-3.56,2.6-3.85,5.069L490.66,76.92z M510.63,68.3c0.184-0.995-0.475-1.949-1.469-2.133
		c-0.143-0.026-0.287-0.035-0.432-0.027c-1.278-0.07-2.384,0.884-2.5,2.16c-0.185,0.98,0.459,1.925,1.439,2.11
		c0.136,0.026,0.273,0.036,0.411,0.03C509.362,70.513,510.479,69.575,510.63,68.3L510.63,68.3z M509.38,76.289
		c0.67-2.76,0.021-4.489-2.41-4.489c-2.35,0-3.49,2.479-3.77,5.069l0.93,0.051c0.22-1.92,0.729-3.36,1.5-3.36
		c0.36,0,0.43,0.67,0.04,1.99l-1.1,4.01c-0.82,2.95,0.09,4.34,2.33,4.34c2.67,0,3.729-2.59,3.949-4.989l-0.939-0.051
		c-0.271,1.99-0.7,3.29-1.28,3.29c-0.53,0-0.62-0.5-0.24-2.04L509.38,76.289z M513.83,76.92c0.22-1.97,0.75-3.36,1.399-3.36
		c0.48,0,0.431,0.6,0.091,2.319c-0.33,1.811-1.181,5.721-1.61,7.541c0,0,1.2-0.07,1.85-0.07c0.681,0,1.86,0.07,1.86,0.07l0.65-3.141
		c1.1-5.38,2.09-6.72,3.17-6.72c0.58,0,0.939,0.62,0.22,3.09l-0.8,2.69c-0.771,2.689-0.141,4.56,2.31,4.56
		c2.601,0,3.76-2.47,3.97-4.989l-0.93-0.051c-0.27,1.971-0.7,3.311-1.28,3.311s-0.6-0.641-0.17-2.32l0.84-3.17
		c0.8-3.03,0.25-4.88-2.31-4.88c-1.792,0.031-3.388,1.141-4.04,2.81c0.03-1.56-0.53-2.81-2.33-2.81c-2.48,0-3.561,2.6-3.83,5.069
		L513.83,76.92z M535.72,82.029c-0.62,3.03-0.86,5.471-3.479,5.471c-0.715,0.057-1.422-0.186-1.95-0.67
		c0.771,0.216,1.57-0.233,1.787-1.004c0.013-0.049,0.024-0.098,0.032-0.146c0.137-0.64-0.271-1.269-0.91-1.405
		c-0.135-0.028-0.273-0.034-0.409-0.015c-0.806-0.048-1.528,0.493-1.71,1.279c-0.38,1.34,0.6,2.73,3.439,2.73
		c3.351,0,6.09-1.65,6.86-6.12c0.44-2.521,1.47-7.73,2.07-10.27c-0.29,0.02-1.37,0.02-1.63,0c-0.361,0.991-1.04,1.835-1.931,2.4
		c-0.1-1.52-0.819-2.48-2.86-2.48c-2.359,0-4.859,2.14-5.51,7.13c-0.46,3.63,0.84,4.97,2.76,4.97
		c1.577-0.028,2.982-1.003,3.561-2.47L535.72,82.029z M534.09,82.149c-0.84,0-0.99-0.67-0.53-3.26c0.7-3.97,1.561-5.33,2.55-5.33
		c0.99,0,1.08,0.96,0.65,3.31C536.11,80.52,535.07,82.15,534.09,82.149L534.09,82.149z M549.37,72.79
		c0.619-0.005,1.23,0.143,1.78,0.43c-0.585,0.011-1.089,0.413-1.23,0.98c-0.194,0.565,0.105,1.181,0.67,1.375
		c0.171,0.059,0.353,0.073,0.53,0.044c0.725,0.067,1.386-0.417,1.54-1.129c0.34-1.56-1.08-2.69-3.78-2.69c-2.72,0-4.47,1.35-5,2.96
		c-0.67,2.04-0.03,3.67,2.65,4.58c1.92,0.65,2.21,1.369,1.989,2.229c-0.21,0.89-1.22,1.28-2.52,1.28
		c-0.77,0.039-1.533-0.156-2.19-0.561c0.64,0.07,1.241-0.318,1.44-0.93c0.215-0.586-0.087-1.234-0.673-1.449
		c-0.168-0.062-0.349-0.083-0.527-0.061c-0.764-0.038-1.445,0.475-1.62,1.22c-0.399,1.75,1.26,2.83,4.17,2.83
		c2.69,0,4.521-1.101,5.15-2.97c0.7-2.09,0.12-3.891-2.82-4.83c-1.92-0.62-2.31-1.3-1.97-2.26
		C547.18,73.27,547.92,72.79,549.37,72.79L549.37,72.79z M565.84,82.25c-0.77,0-1.13-0.7-0.77-3.121
		c0.56-3.649,1.399-5.669,2.529-5.669c0.82,0,1.13,0.48,0.79,2.791C567.82,80.061,566.93,82.25,565.84,82.25L565.84,82.25z
		 M565.75,83.899c4.02,0,6.18-3.239,6.47-6.979c0.29-3.51-1.439-5.12-4.55-5.12c-3.65,0-6.01,2.96-6.45,6.63
		C560.79,82.17,562.6,83.9,565.75,83.899L565.75,83.899z M583.479,67.529c0.57-0.032,1.096,0.307,1.301,0.84
		c-0.841-0.347-1.804,0.052-2.151,0.893c-0.038,0.093-0.068,0.188-0.089,0.287c-0.135,0.705,0.327,1.386,1.032,1.521
		c0.145,0.028,0.292,0.031,0.438,0.009c1.117-0.001,2.021-0.907,2.021-2.024c0-0.005,0-0.011,0-0.016
		c0.189-1.46-0.721-2.66-2.69-2.66c-1.83,0-4.41,1.1-6.21,5.9l-1.71-0.07l-0.17,1.25l1.49-0.02c-0.513,1.663-0.885,3.365-1.11,5.09
		c-0.91,6.26-1.439,8.85-3.63,8.85c-0.279,0.023-0.559-0.051-0.79-0.209c0.692,0.142,1.381-0.265,1.59-0.94
		c0.17-0.566-0.151-1.163-0.719-1.333c-0.143-0.043-0.293-0.056-0.441-0.037c-0.748-0.031-1.405,0.493-1.54,1.23
		c-0.29,1.199,0.58,2.18,2.45,2.18c3.69,0,6.26-3.529,7.66-13.68l0.17-1.18l2.229,0.05l0.2-1.22l-2.239,0.04
		C581.24,68.78,582.11,67.53,583.479,67.529L583.479,67.529z M597.65,78.859c-0.171,2.09-0.721,3.29-1.25,3.29
		c-0.65,0-0.681-0.72-0.32-2.899l1.06-5.811l2.271,0.02l0.16-1.22l-2.21,0.04c0.189-1.05,0.7-3.38,0.84-3.91h-1.25
		c-0.82,2.47-1.59,3.87-4.62,3.87l-0.12,1.22l0.96-0.02c-0.33,1.92-1.06,5.109-1.3,6.53c-0.38,2.35,0.22,3.93,2.77,3.93
		c2.601,0,3.73-2.04,3.95-4.989L597.65,78.859z M613.07,78.859c-0.311,1.95-0.74,3.311-1.351,3.311c-0.649,0-0.5-0.86-0.09-2.42
		l0.771-3.07c0.739-3.03,0.26-4.88-2.261-4.88c-1.633-0.007-3.124,0.927-3.829,2.4l0.77-3.91c0.241-1.129,0.386-2.276,0.43-3.43
		c-1.25,0.05-3.939,0.05-5.189,0c0,0.31-0.1,1.58-0.15,1.9h0.48c0.89,0,0.92,0.55,0.819,1.27c-0.55,3.24-2,10.18-2.72,13.391
		c0,0,1.2-0.07,1.88-0.07c0.65,0,1.851,0.07,1.851,0.07l0.72-3.62c1.13-4.97,2.02-6.24,3.08-6.24c0.6,0,0.85,0.76,0.2,3.09
		l-0.75,2.69c-0.771,2.76-0.291,4.56,2.289,4.56s3.73-2.47,3.99-4.989L613.07,78.859z M623.97,79.34c-0.43,1.92-1.16,2.47-2.29,2.47
		c-1.22,0-1.56-0.88-1.1-3.31c2.81,0.069,5.6-0.36,6.01-3.021c0.34-2.04-0.65-3.68-3.63-3.68c-3.15,0-5.49,1.97-6.26,6.05
		c-0.771,4.229,0.53,6.05,4.14,6.05c3.35,0,4.67-1.75,5.22-4.44C625.39,79.439,624.38,79.37,623.97,79.34L623.97,79.34z
		 M622.81,73.29c0.75,0,0.801,1.15,0.511,2.4c-0.41,1.73-1.131,2.02-2.601,2.02C621.54,73.89,621.97,73.29,622.81,73.29
		L622.81,73.29z M642.04,72.79c0.62-0.006,1.231,0.142,1.78,0.43c-0.585,0.011-1.089,0.413-1.23,0.979
		c-0.194,0.565,0.105,1.181,0.67,1.376c0.171,0.059,0.353,0.073,0.53,0.044c0.726,0.067,1.386-0.418,1.54-1.13
		c0.34-1.56-1.08-2.689-3.78-2.689s-4.47,1.35-5,2.96c-0.67,2.04-0.02,3.67,2.65,4.58c1.92,0.649,2.21,1.369,1.989,2.229
		c-0.209,0.89-1.22,1.28-2.52,1.28c-0.77,0.039-1.533-0.156-2.189-0.561c0.639,0.07,1.24-0.318,1.439-0.93
		c0.215-0.586-0.087-1.235-0.673-1.449c-0.168-0.062-0.349-0.083-0.527-0.061c-0.763-0.041-1.442,0.475-1.609,1.22
		c-0.41,1.75,1.25,2.83,4.159,2.83c2.69,0,4.521-1.101,5.15-2.97c0.7-2.09,0.12-3.891-2.82-4.83c-1.92-0.62-2.31-1.3-1.97-2.26
		C639.85,73.27,640.59,72.79,642.04,72.79L642.04,72.79z M654.88,79.34c-0.43,1.92-1.15,2.47-2.28,2.47
		c-1.229,0-1.569-0.88-1.109-3.31c2.819,0.069,5.609-0.36,6.02-3.021c0.33-2.04-0.65-3.68-3.64-3.68c-3.15,0-5.48,1.97-6.25,6.05
		c-0.771,4.229,0.53,6.05,4.14,6.05c3.34,0,4.66-1.75,5.22-4.44C656.3,79.439,655.29,79.37,654.88,79.34L654.88,79.34z
		 M653.729,73.29c0.74,0,0.79,1.15,0.5,2.4c-0.409,1.73-1.13,2.02-2.59,2.02C652.45,73.89,652.89,73.29,653.729,73.29L653.729,73.29
		z M672.54,78.909l-0.94-0.05c-0.26,1.95-0.739,3.311-1.319,3.311c-0.41,0-0.431-0.621-0.17-2.4c0.29-1.82,1.09-5.71,1.52-7.53
		c-0.36,0.02-1.71,0.02-2.069,0c-0.422,0.665-0.94,1.261-1.541,1.77c-0.189-1.27-0.959-2.21-2.819-2.21
		c-2.351,0-4.86,2.14-5.51,7.13c-0.45,3.63,0.8,4.97,2.72,4.97c1.683-0.038,3.177-1.089,3.78-2.66c-0.12,1.92,0.67,2.66,2.43,2.66
		C670.88,83.9,672.28,81.91,672.54,78.909L672.54,78.909z M664.27,82.149c-0.85,0-0.989-0.67-0.529-3.26
		c0.689-3.97,1.56-5.33,2.55-5.33s1.08,0.96,0.649,3.31C666.29,80.52,665.25,82.15,664.27,82.149L664.27,82.149z M681.35,72.79
		c0.62-0.006,1.231,0.142,1.78,0.43c-0.584,0.011-1.089,0.413-1.229,0.979c-0.195,0.565,0.104,1.181,0.67,1.376
		c0.17,0.059,0.352,0.073,0.529,0.044c0.726,0.067,1.387-0.418,1.54-1.13c0.34-1.56-1.08-2.689-3.77-2.689
		c-2.72,0-4.48,1.35-5.011,2.96c-0.67,2.04-0.02,3.67,2.65,4.58c1.92,0.649,2.21,1.369,1.99,2.229c-0.21,0.89-1.22,1.28-2.521,1.28
		c-0.77,0.039-1.533-0.156-2.189-0.561c0.64,0.07,1.24-0.318,1.439-0.93c0.215-0.586-0.086-1.235-0.672-1.449
		c-0.169-0.062-0.35-0.083-0.527-0.061c-0.763-0.041-1.443,0.475-1.61,1.22c-0.41,1.75,1.25,2.83,4.16,2.83
		c2.689,0,4.52-1.101,5.15-2.97c0.699-2.09,0.119-3.891-2.82-4.83c-1.92-0.62-2.311-1.3-1.97-2.26
		C679.16,73.27,679.9,72.79,681.35,72.79L681.35,72.79z M691.21,82.25c-0.771,0-1.13-0.701-0.771-3.121
		c0.551-3.649,1.4-5.669,2.53-5.669c0.811,0,1.13,0.48,0.79,2.791C693.18,80.061,692.29,82.25,691.21,82.25L691.21,82.25z
		 M691.109,83.899c4.021,0,6.19-3.24,6.48-6.979c0.29-3.511-1.45-5.121-4.55-5.121c-3.66,0-6.021,2.96-6.45,6.63
		C686.16,82.17,687.96,83.9,691.109,83.899L691.109,83.899z M700.93,76.92c0.21-1.971,0.74-3.36,1.391-3.36
		c0.479,0,0.439,0.6,0.1,2.319c-0.34,1.811-1.18,5.721-1.61,7.541c0,0,1.2-0.07,1.851-0.07c0.67,0,1.85,0.07,1.85,0.07l0.65-3.141
		c1.109-5.38,2.1-6.72,3.18-6.72c0.58,0,0.939,0.62,0.22,3.09l-0.8,2.69c-0.77,2.689-0.14,4.56,2.311,4.56
		c2.6,0,3.76-2.47,3.97-4.99l-0.94-0.05c-0.26,1.97-0.689,3.311-1.27,3.311s-0.601-0.641-0.17-2.32l0.84-3.17
		c0.8-3.03,0.24-4.88-2.311-4.88c-1.792,0.029-3.389,1.14-4.04,2.81c0.021-1.56-0.53-2.81-2.33-2.81c-2.479,0-3.569,2.6-3.829,5.07
		L700.93,76.92z M720.99,81.619c0.171-0.998-0.5-1.945-1.498-2.115c-0.172-0.03-0.349-0.035-0.522-0.015
		c-1.237-0.058-2.299,0.875-2.399,2.11c-0.192,0.975,0.442,1.922,1.418,2.113c0.198,0.039,0.401,0.045,0.602,0.017
		c1.199,0.121,2.27-0.753,2.39-1.952C720.985,81.725,720.988,81.673,720.99,81.619L720.99,81.619z"/>
	<path id="all_new_markdowns_up_to_75_off_at_checkout" d="M32.12,139.58c0.55,0,1.09,0,0.92-0.92l-6.81-35.9
		c0.037-0.517-0.352-0.966-0.869-1.002c-0.108-0.008-0.217,0.003-0.321,0.032h-2.93c-0.496-0.143-1.014,0.145-1.156,0.642
		c-0.031,0.106-0.042,0.218-0.034,0.328l-6.82,35.9c-0.16,0.92,0.38,0.92,0.92,0.92h3.25c0.7,0,1.03,0,1.19-0.811l0.49-2.91
		c0.21-1.08,0.21-1.08,1.24-1.08h4.82c0.97,0,0.97,0,1.19,1.08l0.49,2.91c0.16,0.811,0.48,0.811,1.19,0.811H32.12L32.12,139.58z
		 M23.36,115.5c0-0.119,0.096-0.215,0.215-0.215c0.119,0,0.215,0.096,0.215,0.215l2.22,13.12c0.16,1.08,0.16,1.08-0.92,1.08h-3.03
		c-1.08,0-1.08,0-0.92-1.08L23.36,115.5z M39.6,139.58h11.42c0.48,0.117,0.963-0.178,1.08-0.657c0.034-0.14,0.034-0.284,0-0.423
		v-2.91c0.117-0.479-0.178-0.963-0.658-1.08c-0.139-0.033-0.284-0.033-0.422,0h-5.96c-1.13,0-1.13,0-1.13-1.14v-30.5
		c0.117-0.479-0.178-0.964-0.658-1.08c-0.139-0.034-0.284-0.034-0.422,0H39.6c-0.48-0.116-0.963,0.178-1.08,0.657
		c-0.034,0.139-0.034,0.284,0,0.423v35.63c-0.117,0.479,0.178,0.963,0.658,1.08C39.316,139.613,39.461,139.613,39.6,139.58z
		 M57.79,139.58H69.2c0.482,0.118,0.97-0.178,1.088-0.66c0.034-0.139,0.034-0.281,0.002-0.42v-2.91
		c0.113-0.484-0.187-0.969-0.67-1.082c-0.138-0.032-0.282-0.031-0.419,0.002h-5.95c-1.13,0-1.13,0-1.13-1.14v-30.5
		c0.113-0.483-0.187-0.968-0.67-1.082c-0.138-0.032-0.282-0.032-0.419,0.002h-3.24c-0.483-0.118-0.97,0.178-1.088,0.66
		c-0.034,0.138-0.035,0.282-0.002,0.42v35.63c-0.114,0.484,0.187,0.969,0.67,1.082C57.509,139.614,57.652,139.613,57.79,139.58
		L57.79,139.58z M105.47,139.58c0.48,0.117,0.963-0.178,1.08-0.657c0.034-0.14,0.034-0.284,0-0.423v-35.63
		c0.117-0.479-0.178-0.964-0.657-1.08c-0.139-0.034-0.284-0.034-0.423,0h-3.25c-0.479-0.116-0.963,0.178-1.08,0.657
		c-0.034,0.139-0.034,0.284,0,0.423v21.319c0,0.271-0.27,0.381-0.43,0.061l-9.31-21.76c-0.111-0.487-0.59-0.798-1.08-0.7h-2.44
		c-0.479-0.116-0.963,0.178-1.08,0.657c-0.034,0.139-0.034,0.284,0,0.423v35.63c-0.116,0.479,0.178,0.963,0.658,1.08
		c0.139,0.033,0.284,0.033,0.422,0h3.25c0.48,0.117,0.963-0.178,1.08-0.657c0.034-0.14,0.034-0.284,0-0.423v-21.27
		c0-0.271,0.27-0.431,0.43-0.051l9.31,21.75c0.161,0.445,0.611,0.717,1.08,0.65H105.47z M114.14,139.58h11.41
		c0.483,0.118,0.97-0.178,1.088-0.66c0.034-0.139,0.034-0.281,0.002-0.42v-2.91c0.114-0.484-0.187-0.969-0.67-1.082
		c-0.138-0.032-0.282-0.031-0.42,0.002h-6c-1.09,0-1.09,0-1.09-1.08V123.28c0-1.08,0-1.08,1.09-1.08h6
		c0.483,0.118,0.97-0.178,1.088-0.661c0.034-0.137,0.034-0.281,0.002-0.419v-2.92c0.114-0.483-0.187-0.968-0.67-1.082
		c-0.138-0.032-0.282-0.032-0.42,0.002h-6c-1.09,0-1.09,0-1.09-1.08v-8.09c0-1.08,0-1.08,1.09-1.08h6
		c0.483,0.118,0.97-0.178,1.088-0.66c0.034-0.138,0.034-0.282,0.002-0.42v-2.92c0.114-0.483-0.187-0.968-0.67-1.082
		c-0.138-0.032-0.282-0.031-0.42,0.002h-11.41c-0.483-0.118-0.97,0.178-1.088,0.661c-0.033,0.137-0.034,0.281-0.002,0.419v35.63
		c-0.113,0.484,0.187,0.969,0.671,1.082C113.859,139.614,114.002,139.613,114.14,139.58z M147.04,118.26l3.3,20.24
		c0.17,0.811,0.271,1.08,1.25,1.08h2.65c0.535,0.136,1.079-0.188,1.215-0.723c0.03-0.117,0.038-0.238,0.024-0.357l6.77-35.63
		c0.16-0.75-0.06-1.08-0.92-1.08h-3.25c-0.55-0.123-1.096,0.224-1.219,0.774c-0.022,0.1-0.03,0.203-0.021,0.306l-3.57,21.38
		c-0.024,0.135-0.154,0.225-0.29,0.201c-0.102-0.02-0.182-0.1-0.2-0.201l-4.06-21.38c0.055-0.55-0.347-1.04-0.896-1.095
		c-0.098-0.01-0.197-0.004-0.294,0.015h-1.52c-0.546-0.104-1.073,0.255-1.176,0.8c-0.018,0.093-0.022,0.187-0.014,0.28l-4.05,21.38
		c-0.024,0.135-0.154,0.225-0.29,0.201c-0.102-0.02-0.182-0.1-0.2-0.201l-3.57-21.38c0.043-0.566-0.382-1.06-0.948-1.103
		c-0.101-0.007-0.203,0-0.302,0.022h-3.25c-0.86,0-1.08,0.33-0.92,1.08l6.77,35.63c-0.061,0.549,0.334,1.043,0.883,1.104
		c0.119,0.014,0.24,0.005,0.357-0.024h2.11c0.538,0.138,1.086-0.188,1.224-0.725c0.03-0.116,0.039-0.236,0.026-0.355l3.84-20.24
		c-0.002-0.148,0.116-0.271,0.266-0.274c0.149-0.003,0.272,0.116,0.274,0.265C147.04,118.254,147.04,118.257,147.04,118.26z
		 M191.81,139.58H193c0.518,0.132,1.044-0.18,1.176-0.697c0.005-0.021,0.01-0.042,0.014-0.062l5.52-17.65
		c0.05-0.27,0.32-0.21,0.32,0v17.33c-0.114,0.484,0.187,0.969,0.67,1.082c0.138,0.032,0.282,0.031,0.42-0.002h3.24
		c0.483,0.117,0.97-0.178,1.088-0.66c0.034-0.139,0.035-0.282,0.002-0.42v-35.63c0.114-0.484-0.187-0.969-0.67-1.082
		c-0.138-0.032-0.282-0.032-0.419,0.002h-2.43c-0.459-0.108-0.919,0.177-1.027,0.636c-0.001,0.005-0.002,0.01-0.003,0.014
		l-8.28,26.24c0,0.119-0.096,0.215-0.215,0.215s-0.215-0.096-0.215-0.215l-8.28-26.24c-0.1-0.461-0.555-0.753-1.016-0.652
		c-0.004,0-0.009,0.002-0.014,0.003h-2.44c-0.479-0.116-0.963,0.178-1.08,0.657c-0.034,0.139-0.034,0.283,0,0.423v35.63
		c-0.117,0.479,0.177,0.963,0.657,1.08c0.139,0.033,0.284,0.033,0.422,0h3.25c0.48,0.116,0.963-0.178,1.08-0.658
		c0.034-0.139,0.034-0.283,0-0.422v-17.33c0-0.21,0.27-0.27,0.33,0l5.52,17.65c0.095,0.523,0.596,0.87,1.12,0.775
		C191.763,139.592,191.787,139.586,191.81,139.58z M228.94,139.58c0.54,0,1.08,0,0.92-0.92l-6.82-35.9
		c0.042-0.513-0.341-0.963-0.854-1.004c-0.113-0.01-0.228,0.002-0.336,0.034h-2.92c-0.494-0.145-1.012,0.14-1.156,0.634
		c-0.032,0.109-0.043,0.223-0.034,0.336l-6.82,35.9c-0.16,0.92,0.38,0.92,0.92,0.92h3.25c0.7,0,1.02,0,1.19-0.811l0.48-2.91
		c0.22-1.08,0.22-1.08,1.25-1.08h4.82c0.97,0,0.97,0,1.19,1.08l0.48,2.91c0.17,0.811,0.49,0.811,1.19,0.811H228.94z M220.17,115.5
		c0.012-0.121,0.12-0.211,0.241-0.199c0.105,0.011,0.188,0.094,0.199,0.199l2.22,13.12c0.16,1.08,0.16,1.08-0.92,1.08h-3.04
		c-1.08,0-1.08,0-0.92-1.08L220.17,115.5z M243.45,101.79h-7.04c-0.48-0.116-0.963,0.178-1.08,0.657
		c-0.034,0.139-0.034,0.284,0,0.423v35.63c-0.117,0.479,0.178,0.963,0.657,1.08c0.139,0.033,0.284,0.033,0.423,0h3.25
		c0.479,0.117,0.963-0.178,1.08-0.657c0.034-0.14,0.034-0.284,0-0.423v-13.66c0-1.08,0-1.08,1.09-1.08h1.02
		c0.3-0.055,0.587,0.143,0.643,0.442c0.003,0.016,0.005,0.032,0.007,0.048l2.76,14.52c0.17,0.811,0.49,0.811,1.19,0.811h3.41
		c0.44,0,0.87-0.27,0.65-1.13l-3.24-16.09c1.89-1.4,3.3-3.89,3.3-8.8v-1.73C251.57,104.38,247.94,101.79,243.45,101.79
		L243.45,101.79z M243.45,106.54c1.68,0,2.7,1.08,2.7,3.89v4.75c0,2.75-1.02,3.83-2.7,3.83h-1.62c-1.09,0-1.09,0-1.09-1.08v-10.31
		c0-1.08,0-1.08,1.09-1.08H243.45z M262.99,138.5v-10.74c-0.024-0.444,0.051-0.889,0.22-1.3l1.3-3.021
		c0.02-0.118,0.132-0.198,0.25-0.179c0.092,0.016,0.164,0.087,0.18,0.179l4.17,15.061c0.071,0.672,0.673,1.158,1.345,1.087
		c0.018-0.002,0.037-0.004,0.055-0.007h3.2c0.406,0.08,0.8-0.184,0.88-0.59c0.033-0.166,0.008-0.34-0.07-0.49l-5.85-21.22
		c-0.144-0.308-0.144-0.663,0-0.97l5.85-13.44c0.27-0.59,0.16-1.08-0.65-1.08h-3.19c-0.729-0.122-1.423,0.356-1.57,1.08l-5.69,13.17
		c-0.16,0.33-0.43,0.22-0.43-0.05v-13.12c0.117-0.479-0.178-0.964-0.657-1.08c-0.139-0.034-0.284-0.034-0.423,0h-3.25
		c-0.479-0.116-0.963,0.178-1.08,0.657c-0.034,0.139-0.034,0.284,0,0.423v35.63c-0.117,0.48,0.177,0.963,0.657,1.08
		c0.139,0.033,0.284,0.033,0.422,0h3.25c0.48,0.116,0.963-0.178,1.08-0.658C263.024,138.783,263.023,138.639,262.99,138.5
		L262.99,138.5z M280.37,101.79c-0.479-0.116-0.963,0.178-1.08,0.657c-0.034,0.139-0.034,0.284,0,0.423v35.63
		c-0.117,0.479,0.178,0.963,0.657,1.08c0.139,0.033,0.284,0.033,0.423,0h6.49c4.49,0,8.66-2.811,8.66-10.26V112.05
		c0-7.45-4.17-10.26-8.66-10.26H280.37L280.37,101.79z M284.7,133.37v-25.42c0-1.08,0-1.08,1.08-1.08h1.08
		c1.68,0,3.25,1.08,3.25,3.88v19.87c0,2.81-1.57,3.89-3.25,3.89h-1.08C284.7,134.51,284.7,134.51,284.7,133.37L284.7,133.37z
		 M318.25,111.83c0-7.45-4.16-10.25-8.65-10.25s-8.66,2.8-8.66,10.25v17.71c0,7.45,4.16,10.26,8.66,10.26s8.65-2.81,8.65-10.26
		V111.83z M312.84,130.939c0,2.811-1.57,3.891-3.24,3.891s-3.25-1.08-3.25-3.891v-20.51c0-2.81,1.57-3.89,3.25-3.89
		s3.24,1.08,3.24,3.89V130.939z M338.66,118.26l3.3,20.24c0.17,0.811,0.27,1.08,1.25,1.08h2.65c0.535,0.136,1.079-0.188,1.215-0.724
		c0.03-0.116,0.038-0.237,0.025-0.356l6.77-35.63c0.16-0.75-0.06-1.08-0.92-1.08h-3.25c-0.55-0.123-1.096,0.224-1.219,0.774
		c-0.022,0.1-0.03,0.203-0.021,0.306l-3.57,21.38c-0.024,0.135-0.154,0.225-0.29,0.2c-0.102-0.019-0.182-0.099-0.2-0.2l-4.061-21.38
		c0.055-0.55-0.346-1.04-0.896-1.095c-0.099-0.01-0.197-0.005-0.294,0.015h-1.521c-0.545-0.104-1.072,0.254-1.176,0.8
		c-0.018,0.092-0.022,0.187-0.013,0.28l-4.05,21.38c-0.024,0.135-0.154,0.225-0.29,0.2c-0.102-0.019-0.182-0.099-0.2-0.2
		l-3.57-21.38c0.042-0.566-0.382-1.06-0.948-1.103c-0.101-0.008-0.203,0-0.302,0.022h-3.25c-0.86,0-1.08,0.33-0.92,1.08l6.77,35.63
		c-0.061,0.549,0.334,1.043,0.883,1.104c0.119,0.013,0.24,0.005,0.356-0.024h2.11c0.538,0.138,1.086-0.188,1.224-0.725
		c0.03-0.116,0.039-0.236,0.026-0.355l3.84-20.24c-0.002-0.148,0.116-0.271,0.265-0.274c0.149-0.003,0.272,0.116,0.275,0.265
		C338.66,118.254,338.66,118.257,338.66,118.26L338.66,118.26z M377.74,139.58c0.482,0.117,0.97-0.178,1.088-0.66
		c0.034-0.139,0.034-0.282,0.002-0.42v-35.63c0.113-0.484-0.187-0.969-0.67-1.082c-0.138-0.032-0.282-0.032-0.419,0.002h-3.24
		c-0.483-0.118-0.97,0.178-1.088,0.66c-0.034,0.138-0.035,0.282-0.002,0.42v21.319c0,0.271-0.27,0.381-0.43,0.061l-9.31-21.76
		c-0.106-0.49-0.589-0.804-1.08-0.7h-2.43c-0.483-0.118-0.97,0.178-1.088,0.66c-0.034,0.138-0.034,0.282-0.002,0.42v35.63
		c-0.114,0.484,0.187,0.969,0.67,1.082c0.138,0.032,0.282,0.031,0.42-0.002h3.24c0.483,0.117,0.97-0.178,1.088-0.66
		c0.034-0.139,0.035-0.282,0.002-0.42v-21.27c0-0.271,0.27-0.431,0.43-0.051l9.31,21.75c0.156,0.449,0.61,0.722,1.08,0.65H377.74z
		 M392.42,139.8c4.79-0.002,8.672-3.886,8.67-8.677c0-0.365-0.023-0.73-0.07-1.094c-1.029-8.479-10.77-13.93-11.359-19.979
		c-0.11-1.08,0.16-3.51,2.65-3.51c1.46,0,2.6,0.92,2.6,2.86c-0.117,0.479,0.178,0.963,0.657,1.079c0.139,0.034,0.284,0.034,0.423,0
		h2.97c1.09,0,1.19-0.27,1.09-1.72c-0.418-4.331-4.268-7.504-8.6-7.086c-4.264,0.412-7.417,4.154-7.1,8.426
		c0.54,8.91,12.45,15.12,11.42,21.54c-0.098,1.782-1.566,3.18-3.35,3.19c-2.22,0-3.31-1.73-3.31-3.83c0-0.971-0.37-1.24-1.08-1.24
		h-3.14c-0.92,0-1.13,0.27-1.13,1.18c-0.112,4.779,3.67,8.745,8.45,8.858C392.279,139.799,392.35,139.8,392.42,139.8L392.42,139.8z
		 M429.82,102.869v28.07c0,2.811-1.57,3.891-3.25,3.891c-1.681,0-3.25-1.08-3.25-3.891v-28.07c0.116-0.479-0.178-0.963-0.657-1.079
		c-0.14-0.034-0.284-0.034-0.423,0H419c-0.482-0.118-0.97,0.177-1.088,0.66c-0.034,0.138-0.034,0.281-0.002,0.419v26.671
		c0,7.45,4.17,10.26,8.66,10.26s8.66-2.81,8.66-10.26v-26.671c0.116-0.479-0.178-0.963-0.658-1.079
		c-0.139-0.034-0.283-0.034-0.422,0h-3.25c-0.48-0.117-0.964,0.177-1.08,0.657C429.786,102.586,429.786,102.73,429.82,102.869
		L429.82,102.869z M442.54,101.79c-0.479-0.117-0.963,0.177-1.08,0.657c-0.034,0.139-0.034,0.283,0,0.422V138.5
		c-0.127,0.469,0.149,0.952,0.618,1.08c0.151,0.041,0.311,0.041,0.462,0h3.25c0.49,0.105,0.974-0.205,1.08-0.695
		c0.027-0.127,0.027-0.258,0-0.385v-10.42c0-0.811,0-1.021,0.54-1.08h1.63c4.49,0,8.65-2.811,8.65-10.26v-4.69
		c0-7.45-4.16-10.26-8.65-10.26H442.54z M446.87,120.79v-12.841c0-1.079,0-1.079,1.08-1.079h1.09c1.67,0,3.24,1.079,3.24,3.88v7.29
		c0,2.81-1.57,3.89-3.24,3.89h-1.09C446.87,121.93,446.87,121.93,446.87,120.79L446.87,120.79z M473.13,102.869v2.921
		c-0.116,0.479,0.178,0.963,0.657,1.079c0.139,0.034,0.284,0.034,0.423,0h3.3c1.03,0,1.03,0,1.03,1.08V138.5
		c-0.116,0.479,0.178,0.963,0.657,1.08c0.139,0.033,0.284,0.033,0.423,0h3.25c0.479,0.116,0.963-0.178,1.08-0.658
		c0.033-0.139,0.033-0.283,0-0.422v-30.551c0-1.08,0-1.08,1.08-1.08h3.25c0.479,0.117,0.963-0.177,1.079-0.656
		c0.034-0.14,0.034-0.284,0-0.423v-2.921c0.117-0.479-0.177-0.963-0.657-1.079c-0.139-0.034-0.283-0.034-0.422,0h-14.07
		c-0.479-0.117-0.963,0.177-1.08,0.657C473.096,102.586,473.096,102.73,473.13,102.869L473.13,102.869z M510.74,111.83
		c0-7.45-4.17-10.25-8.66-10.25s-8.66,2.8-8.66,10.25v17.709c0,7.451,4.17,10.261,8.66,10.261s8.66-2.81,8.66-10.261V111.83z
		 M505.33,130.939c0,2.811-1.57,3.891-3.25,3.891s-3.25-1.08-3.25-3.891v-20.51c0-2.811,1.57-3.891,3.25-3.891s3.25,1.08,3.25,3.891
		V130.939z M530.23,138.5c-0.192,0.365-0.053,0.816,0.312,1.009c0.152,0.08,0.328,0.105,0.497,0.071h3.41
		c0.565,0.086,1.093-0.302,1.18-0.867c0.011-0.07,0.014-0.142,0.01-0.213l6.88-31.15c0.121-0.419,0.175-0.854,0.16-1.29v-3.19
		c0.117-0.479-0.178-0.963-0.657-1.079c-0.139-0.034-0.283-0.034-0.423,0H528.61c-0.479-0.117-0.964,0.177-1.08,0.657
		c-0.034,0.139-0.034,0.283,0,0.422v2.921c-0.117,0.479,0.178,0.963,0.657,1.079c0.139,0.034,0.284,0.034,0.423,0h8.109
		c0.33,0,0.551,0.16,0.44,0.641L530.23,138.5z M560,121.66v9.279c0,2.811-1.03,3.891-2.71,3.891s-2.7-1.08-2.7-3.891v-0.38
		c0.114-0.478-0.182-0.958-0.659-1.071c-0.139-0.033-0.282-0.033-0.421,0.002h-3.199c-0.811,0-1.131,0.64-1.08,1.56
		c0.43,6.32,3.899,8.75,8.06,8.75c4.5,0,8.12-2.81,8.12-10.26v-7.771c0-6.43-3.08-9.289-6.979-9.18
		c-1.444,0.055-2.815,0.651-3.841,1.67v-6.311c0-0.869,0.16-1.079,1.08-1.079h7.96c0.48,0.116,0.964-0.178,1.08-0.657
		c0.034-0.139,0.034-0.284,0-0.423v-2.92c0.117-0.479-0.178-0.964-0.657-1.08c-0.139-0.034-0.283-0.034-0.423,0h-13.37
		c-0.479-0.116-0.963,0.178-1.079,0.657c-0.034,0.139-0.034,0.283,0,0.423v19.22c-0.117,0.479,0.177,0.963,0.657,1.08
		c0.139,0.033,0.283,0.033,0.422,0h3.25c0.48,0.117,0.964-0.178,1.08-0.657c0.034-0.14,0.034-0.284,0-0.423v-0.811
		c0.11-2.92,1.301-3.729,2.7-3.729C558.75,117.55,560,118.42,560,121.66L560,121.66z M573.35,109.21
		c-0.268-0.264-0.415-0.625-0.41-1v-2.761c-0.005-0.375,0.143-0.736,0.41-1c0.244-0.258,0.585-0.402,0.94-0.399
		c0.358-0.003,0.702,0.142,0.95,0.399c0.268,0.264,0.415,0.625,0.41,1v2.761c0.005,0.375-0.143,0.736-0.41,1
		c-0.248,0.259-0.592,0.403-0.95,0.399C573.935,109.613,573.594,109.468,573.35,109.21L573.35,109.21z M577.65,111.72
		c0.828-0.761,1.281-1.846,1.239-2.97v-3.51c0.065-1.207-0.385-2.385-1.239-3.24c-1.955-1.587-4.755-1.587-6.71,0
		c-0.858,0.854-1.312,2.031-1.25,3.24v3.51c-0.039,1.125,0.418,2.211,1.25,2.97C572.923,113.227,575.667,113.227,577.65,111.72
		L577.65,111.72z M581.82,132.51c-0.012-0.374,0.134-0.736,0.399-1c0.495-0.524,1.322-0.549,1.847-0.054
		c0.019,0.018,0.036,0.035,0.054,0.054c0.267,0.264,0.411,0.626,0.4,1v2.75c0.011,0.375-0.134,0.736-0.4,1
		c-0.513,0.525-1.354,0.535-1.878,0.022c-0.008-0.008-0.015-0.015-0.022-0.022c-0.266-0.264-0.411-0.625-0.399-1V132.51z
		 M586.53,138.77c0.828-0.76,1.282-1.846,1.239-2.97v-3.51c0.066-1.207-0.385-2.386-1.239-3.24c-1.959-1.587-4.761-1.587-6.72,0
		c-0.855,0.854-1.306,2.033-1.24,3.24v3.51c-0.042,1.124,0.411,2.21,1.24,2.97C581.797,140.277,584.543,140.277,586.53,138.77
		L586.53,138.77z M570.34,139.58h3.57l13.21-38.45h-3.57L570.34,139.58z M620.73,111.83c0-7.45-4.17-10.25-8.66-10.25
		s-8.66,2.8-8.66,10.25v17.71c0,7.45,4.17,10.26,8.66,10.26s8.66-2.81,8.66-10.26V111.83z M615.32,130.939
		c0,2.811-1.57,3.891-3.25,3.891c-1.681,0-3.24-1.08-3.24-3.891v-20.51c0-2.81,1.57-3.89,3.24-3.89s3.25,1.08,3.25,3.89V130.939z
		 M627.77,139.58h3.25c0.48,0.117,0.964-0.178,1.08-0.657c0.034-0.14,0.034-0.284,0-0.423v-15.22c0-1.08,0-1.08,1.08-1.08h4.33
		c0.482,0.118,0.97-0.178,1.088-0.661c0.034-0.137,0.035-0.281,0.002-0.419v-2.92c0.114-0.483-0.187-0.968-0.67-1.082
		c-0.139-0.032-0.282-0.032-0.42,0.002h-4.33c-1.08,0-1.08,0-1.08-1.08v-8.09c0-1.08,0-1.08,1.08-1.08h6.01
		c0.48,0.116,0.964-0.178,1.08-0.657c0.034-0.139,0.034-0.283,0-0.423v-2.92c0.117-0.479-0.178-0.963-0.657-1.08
		c-0.139-0.034-0.283-0.034-0.423,0h-11.42c-0.479-0.116-0.963,0.178-1.08,0.657c-0.033,0.139-0.033,0.284,0,0.423v35.63
		c-0.116,0.48,0.179,0.963,0.658,1.08C627.486,139.613,627.631,139.613,627.77,139.58z M646.77,139.58h3.25
		c0.48,0.117,0.964-0.178,1.08-0.657c0.034-0.14,0.034-0.284,0-0.423v-15.22c0-1.08,0-1.08,1.08-1.08h4.33
		c0.482,0.118,0.97-0.178,1.088-0.661c0.034-0.137,0.035-0.281,0.002-0.419v-2.92c0.114-0.483-0.187-0.968-0.67-1.082
		c-0.139-0.032-0.282-0.032-0.42,0.002h-4.33c-1.08,0-1.08,0-1.08-1.08v-8.09c0-1.08,0-1.08,1.08-1.08h6.01
		c0.48,0.116,0.964-0.178,1.08-0.657c0.034-0.139,0.034-0.283,0-0.423v-2.92c0.117-0.479-0.178-0.963-0.657-1.08
		c-0.139-0.034-0.283-0.034-0.423,0h-11.42c-0.479-0.116-0.963,0.178-1.08,0.657c-0.033,0.139-0.033,0.284,0,0.423v35.63
		c-0.116,0.48,0.179,0.963,0.658,1.08C646.486,139.613,646.631,139.613,646.77,139.58z M693.59,139.58c0.54,0,1.08,0,0.92-0.92
		l-6.819-35.9c0.041-0.513-0.341-0.963-0.854-1.004c-0.113-0.01-0.227,0.002-0.336,0.034h-2.92c-0.494-0.145-1.012,0.14-1.155,0.634
		c-0.032,0.109-0.044,0.223-0.034,0.336l-6.82,35.9c-0.16,0.92,0.38,0.92,0.92,0.92h3.25c0.7,0,1.03,0,1.189-0.811l0.48-2.91
		c0.22-1.08,0.22-1.08,1.25-1.08h4.82c0.97,0,0.97,0,1.189,1.08l0.48,2.91c0.17,0.811,0.489,0.811,1.189,0.811H693.59z
		 M684.82,115.5c0.012-0.121,0.119-0.211,0.241-0.199c0.104,0.011,0.188,0.094,0.198,0.199l2.22,13.12
		c0.16,1.08,0.16,1.08-0.92,1.08h-3.04c-1.08,0-1.08,0-0.92-1.08L684.82,115.5z M696.189,102.87v2.92
		c-0.113,0.483,0.188,0.968,0.671,1.082c0.138,0.032,0.282,0.032,0.42-0.002h3.3c1.03,0,1.03,0,1.03,1.08v30.55
		c-0.117,0.479,0.177,0.963,0.657,1.08c0.139,0.033,0.283,0.033,0.422,0h3.24c0.483,0.118,0.971-0.178,1.088-0.66
		c0.034-0.139,0.035-0.281,0.002-0.42v-30.55c0-1.08,0-1.08,1.08-1.08h3.25c0.48,0.116,0.964-0.178,1.08-0.657
		c0.034-0.139,0.034-0.284,0-0.423v-2.92c0.117-0.479-0.178-0.964-0.657-1.08c-0.139-0.034-0.284-0.034-0.423,0H697.28
		c-0.483-0.118-0.971,0.178-1.089,0.66C696.158,102.588,696.157,102.732,696.189,102.87z M733.81,130.939v-20.51
		c0-2.81,1.57-3.89,3.25-3.89c1.681,0,3.25,1.08,3.25,3.89v0.381c-0.116,0.479,0.178,0.963,0.657,1.079
		c0.14,0.034,0.284,0.034,0.423,0h3.19c0.623-0.007,1.122-0.517,1.115-1.14c-0.001-0.092-0.013-0.182-0.035-0.27
		c-0.48-6.421-4.381-8.9-8.601-8.9c-4.489,0-8.66,2.8-8.66,10.25v17.71c0,7.45,4.171,10.26,8.66,10.26c4.22,0,8.12-2.49,8.601-8.91
		c0.154-0.599-0.206-1.21-0.805-1.364c-0.09-0.023-0.183-0.035-0.275-0.035h-3.19c-0.477-0.119-0.96,0.172-1.078,0.649
		c-0.034,0.138-0.034,0.282-0.002,0.42v0.38c0,2.811-1.569,3.891-3.25,3.891C735.38,134.83,733.811,133.75,733.81,130.939
		L733.81,130.939z M762.23,123.279V138.5c-0.117,0.479,0.177,0.963,0.657,1.08c0.139,0.033,0.283,0.033,0.422,0h3.25
		c0.48,0.116,0.964-0.178,1.08-0.658c0.034-0.139,0.034-0.283,0-0.422v-35.63c0.117-0.479-0.178-0.964-0.657-1.08
		c-0.139-0.034-0.283-0.034-0.423,0h-3.25c-0.479-0.116-0.963,0.178-1.079,0.657c-0.034,0.139-0.034,0.283,0,0.423v13.17
		c0,1.08,0,1.08-1.08,1.08h-3.25c-1.08,0-1.08,0-1.08-1.08v-13.17c0.113-0.484-0.187-0.969-0.671-1.082
		c-0.138-0.032-0.281-0.032-0.419,0.002h-3.24c-0.479-0.116-0.963,0.178-1.08,0.657c-0.034,0.139-0.034,0.283,0,0.423v35.63
		c-0.117,0.479,0.178,0.963,0.657,1.08c0.139,0.033,0.284,0.033,0.423,0h3.24c0.482,0.117,0.97-0.178,1.088-0.66
		c0.033-0.139,0.034-0.282,0.002-0.42v-15.221c0-1.079,0-1.079,1.08-1.079h3.25C762.23,122.2,762.23,122.2,762.23,123.279
		L762.23,123.279z M775.22,139.58h11.42c0.48,0.117,0.964-0.178,1.08-0.657c0.034-0.14,0.034-0.284,0-0.423v-2.91
		c0.117-0.479-0.178-0.963-0.657-1.08c-0.139-0.033-0.283-0.033-0.423,0h-6.01c-1.08,0-1.08,0-1.08-1.08V123.28
		c0-1.08,0-1.08,1.08-1.08h6.01c0.48,0.116,0.964-0.178,1.08-0.657c0.034-0.139,0.034-0.284,0-0.423v-2.92
		c0.117-0.479-0.178-0.964-0.657-1.08c-0.139-0.034-0.283-0.034-0.423,0h-6.01c-1.08,0-1.08,0-1.08-1.08v-8.09
		c0-1.08,0-1.08,1.08-1.08h6.01c0.48,0.116,0.964-0.178,1.08-0.657c0.034-0.139,0.034-0.283,0-0.423v-2.92
		c0.117-0.479-0.178-0.963-0.657-1.08c-0.139-0.034-0.283-0.034-0.423,0h-11.42c-0.479-0.116-0.963,0.178-1.08,0.657
		c-0.033,0.139-0.033,0.284,0,0.423v35.63c-0.116,0.48,0.179,0.963,0.658,1.08C774.937,139.613,775.081,139.613,775.22,139.58z
		 M798.55,130.939v-20.51c0-2.81,1.57-3.89,3.25-3.89c1.681,0,3.24,1.08,3.24,3.89v0.381c-0.113,0.483,0.187,0.968,0.671,1.081
		c0.138,0.032,0.281,0.032,0.419-0.002h3.19c0.623-0.007,1.122-0.517,1.115-1.14c0-0.092-0.013-0.182-0.035-0.27
		c-0.48-6.421-4.38-8.9-8.601-8.9c-4.489,0-8.659,2.8-8.659,10.25v17.71c0,7.45,4.17,10.26,8.659,10.26c4.22,0,8.12-2.49,8.601-8.91
		c0.154-0.599-0.206-1.21-0.805-1.364c-0.09-0.023-0.183-0.035-0.275-0.035h-3.19c-0.483-0.117-0.97,0.18-1.086,0.663
		c-0.032,0.134-0.034,0.272-0.004,0.406v0.38c0,2.811-1.56,3.891-3.24,3.891C800.12,134.83,798.55,133.75,798.55,130.939z
		 M821.561,138.5v-10.74c-0.022-0.443,0.049-0.886,0.209-1.3l1.301-3.021c0.109-0.27,0.38-0.22,0.43,0l4.17,15.061
		c0.079,0.679,0.693,1.164,1.372,1.085c0.013-0.001,0.025-0.003,0.038-0.005h3.189c0.406,0.08,0.8-0.184,0.881-0.59
		c0.032-0.166,0.008-0.34-0.07-0.49l-5.84-21.22c-0.145-0.308-0.145-0.663,0-0.97l5.84-13.44c0.27-0.59,0.16-1.08-0.65-1.08h-3.189
		c-0.729-0.119-1.421,0.357-1.57,1.08l-5.68,13.17c-0.16,0.33-0.43,0.22-0.43-0.05v-13.12c0.113-0.483-0.188-0.968-0.671-1.082
		c-0.138-0.032-0.282-0.032-0.42,0.002h-3.239c-0.483-0.118-0.971,0.178-1.089,0.66c-0.033,0.138-0.034,0.282-0.002,0.42v35.63
		c-0.113,0.484,0.187,0.969,0.671,1.082c0.138,0.032,0.281,0.031,0.42-0.002h3.239c0.483,0.118,0.97-0.178,1.089-0.66
		C821.592,138.782,821.593,138.639,821.561,138.5z M854.63,111.83c0-7.45-4.17-10.25-8.659-10.25c-4.49,0-8.66,2.8-8.66,10.25v17.71
		c0,7.45,4.17,10.26,8.66,10.26c4.489,0,8.659-2.81,8.659-10.26V111.83z M849.21,130.939c0,2.811-1.56,3.891-3.239,3.891
		c-1.681,0-3.25-1.08-3.25-3.891v-20.51c0-2.81,1.569-3.89,3.25-3.89c1.68,0,3.239,1.08,3.239,3.89V130.939z M872.221,102.87v28.069
		c0,2.811-1.57,3.891-3.25,3.891c-1.681,0-3.24-1.08-3.24-3.891V102.87c0.113-0.483-0.187-0.968-0.671-1.082
		c-0.138-0.032-0.282-0.032-0.419,0.002h-3.24c-0.483-0.118-0.971,0.178-1.088,0.66c-0.034,0.138-0.035,0.282-0.002,0.42v26.67
		c0,7.45,4.17,10.26,8.659,10.26c4.49,0,8.66-2.81,8.66-10.26v-26.67c0.116-0.479-0.178-0.964-0.657-1.08
		c-0.139-0.034-0.284-0.034-0.423,0h-3.25c-0.479-0.116-0.963,0.178-1.08,0.657C872.187,102.586,872.187,102.731,872.221,102.87
		L872.221,102.87z M881.971,102.87v2.92c-0.117,0.479,0.177,0.964,0.657,1.08c0.139,0.034,0.283,0.034,0.423,0h3.3
		c1.03,0,1.03,0,1.03,1.08v30.55c-0.117,0.479,0.177,0.963,0.657,1.08c0.139,0.033,0.283,0.033,0.423,0h3.25
		c0.479,0.117,0.963-0.178,1.08-0.657c0.033-0.14,0.033-0.284,0-0.423v-30.55c0-1.08,0-1.08,1.08-1.08h3.25
		c0.479,0.116,0.963-0.178,1.08-0.657c0.033-0.139,0.033-0.284,0-0.423v-2.92c0.116-0.479-0.178-0.964-0.658-1.08
		c-0.139-0.034-0.283-0.034-0.422,0h-14.07c-0.48-0.117-0.964,0.177-1.081,0.657C881.936,102.586,881.936,102.73,881.971,102.87
		L881.971,102.87z"/>
	<path d="M338.99,51.67h234.04l-12.82-15.98l12.82-15.98H338.99l12.83,15.98L338.99,51.67z"/>
	<path id="sale_on_sale" d="M402.79,30.8c-0.002-0.529-0.11-1.053-0.32-1.54c-0.217-0.5-0.521-0.957-0.899-1.35
		c-0.411-0.407-0.893-0.735-1.42-0.97c-0.575-0.245-1.195-0.367-1.82-0.36c-0.694-0.017-1.385,0.12-2.02,0.4
		c-0.552,0.254-1.04,0.626-1.431,1.09c-0.39,0.48-0.679,1.035-0.85,1.63c-0.194,0.646-0.292,1.316-0.29,1.99
		c-0.034,1.006,0.168,2.006,0.59,2.92c0.519,0.888,1.344,1.556,2.32,1.88l1.909,0.78c0.276,0.113,0.544,0.247,0.801,0.4
		c0.194,0.117,0.358,0.278,0.479,0.47c0.121,0.237,0.196,0.495,0.22,0.76c0.03,0.31,0.051,0.72,0.051,1.21
		c0,0.42-0.021,0.8-0.051,1.15c-0.025,0.307-0.11,0.605-0.25,0.88c-0.133,0.238-0.335,0.43-0.579,0.55
		c-0.333,0.148-0.696,0.217-1.061,0.2c-0.551,0.055-1.094-0.166-1.45-0.59c-0.286-0.384-0.441-0.851-0.439-1.33v-0.84h-2.67v1
		c-0.002,0.604,0.117,1.203,0.35,1.76c0.23,0.522,0.556,0.997,0.96,1.4c0.416,0.4,0.904,0.716,1.439,0.93
		c0.575,0.232,1.19,0.347,1.811,0.34c0.749,0.021,1.493-0.122,2.18-0.42c0.563-0.257,1.055-0.648,1.431-1.14
		c0.368-0.52,0.63-1.107,0.77-1.729c0.166-0.718,0.246-1.453,0.24-2.19c0.003-0.608-0.034-1.216-0.11-1.82
		c-0.053-0.494-0.191-0.974-0.41-1.42c-0.2-0.415-0.49-0.78-0.85-1.07c-0.43-0.349-0.917-0.619-1.439-0.8l-2.04-0.82
		c-0.292-0.109-0.57-0.25-0.83-0.42c-0.186-0.126-0.342-0.29-0.46-0.48c-0.109-0.205-0.178-0.429-0.2-0.66
		c-0.021-0.25-0.04-0.56-0.04-0.93c0.001-0.302,0.027-0.603,0.08-0.9c0.051-0.267,0.145-0.524,0.28-0.76
		c0.133-0.225,0.322-0.411,0.55-0.54c0.275-0.149,0.586-0.222,0.9-0.21c0.571-0.056,1.129,0.2,1.459,0.67
		c0.298,0.476,0.447,1.029,0.431,1.59v0.6h2.68V30.8L402.79,30.8z M411.23,38.87h-2.681l1.311-6.76h0.06L411.23,38.87z M404.62,45.4
		h2.68l0.78-4.01h3.65l0.779,4.01h2.681l-4.17-18.67h-2.23L404.62,45.4z M417.55,45.4h7.97v-2.67h-5.3v-16h-2.67V45.4L417.55,45.4z
		 M428.3,45.4h7.97v-2.67h-5.3v-5.48h4.62v-2.52h-4.62v-5.48h5.3v-2.52h-7.97V45.4z M444.82,41c-0.018,0.687,0.116,1.37,0.39,2
		c0.474,1.07,1.373,1.893,2.48,2.27c1.038,0.387,2.181,0.387,3.22,0c1.103-0.385,1.999-1.206,2.479-2.27
		c0.274-0.63,0.407-1.313,0.391-2v-9.86c0.014-0.684-0.119-1.362-0.391-1.99c-0.236-0.547-0.592-1.036-1.04-1.43
		c-0.42-0.376-0.908-0.668-1.439-0.86c-1.041-0.373-2.18-0.373-3.22,0c-0.533,0.194-1.025,0.485-1.45,0.86
		c-0.442,0.397-0.793,0.885-1.03,1.43c-0.271,0.628-0.403,1.307-0.39,1.99V41z M447.49,31.14c-0.045-0.534,0.153-1.059,0.54-1.43
		c0.735-0.613,1.805-0.613,2.54,0c0.387,0.371,0.585,0.896,0.54,1.43V41c0.043,0.533-0.155,1.058-0.54,1.43
		c-0.735,0.613-1.805,0.613-2.54,0c-0.385-0.372-0.583-0.897-0.54-1.43V31.14z M457.09,45.4h2.67V34.18h0.051l4.09,11.22h2.52V26.73
		h-2.67v11.25h-0.06l-4.03-11.25h-2.57V45.4z M484.46,30.8c0.002-0.529-0.104-1.053-0.31-1.54c-0.221-0.5-0.529-0.958-0.91-1.35
		c-0.854-0.867-2.023-1.348-3.24-1.33c-0.694-0.017-1.385,0.12-2.02,0.4c-0.55,0.256-1.038,0.628-1.431,1.09
		c-0.386,0.483-0.675,1.037-0.85,1.63c-0.194,0.646-0.292,1.316-0.29,1.99c-0.034,1.006,0.168,2.006,0.59,2.92
		c0.521,0.886,1.346,1.553,2.32,1.88l1.92,0.78c0.275,0.115,0.542,0.249,0.8,0.4c0.194,0.114,0.355,0.276,0.47,0.47
		c0.126,0.235,0.201,0.494,0.22,0.76c0.045,0.401,0.065,0.806,0.061,1.21c0.002,0.384-0.019,0.768-0.061,1.15
		c-0.017,0.308-0.102,0.609-0.25,0.88c-0.132,0.235-0.33,0.426-0.569,0.55c-0.334,0.146-0.696,0.215-1.061,0.2
		c-0.554,0.054-1.099-0.166-1.46-0.59c-0.284-0.385-0.435-0.852-0.43-1.33v-0.84h-2.681v1c-0.004,0.605,0.119,1.205,0.36,1.76
		c0.223,0.524,0.546,1,0.95,1.4c0.421,0.398,0.912,0.714,1.45,0.93c0.575,0.232,1.189,0.347,1.81,0.34
		c0.746,0.021,1.486-0.122,2.17-0.42c0.564-0.254,1.057-0.646,1.431-1.14c0.376-0.515,0.639-1.105,0.77-1.729
		c0.165-0.718,0.246-1.453,0.24-2.19c0.001-0.608-0.032-1.215-0.101-1.82c-0.058-0.493-0.196-0.972-0.409-1.42
		c-0.205-0.413-0.494-0.778-0.851-1.07c-0.434-0.349-0.924-0.619-1.449-0.8l-2.041-0.82c-0.291-0.109-0.569-0.25-0.829-0.42
		c-0.392-0.25-0.635-0.676-0.65-1.14c-0.031-0.309-0.044-0.62-0.04-0.93c-0.004-0.302,0.022-0.604,0.08-0.9
		c0.043-0.268,0.134-0.525,0.27-0.76c0.137-0.223,0.325-0.408,0.551-0.54c0.279-0.149,0.593-0.222,0.91-0.21
		c0.568-0.054,1.122,0.202,1.449,0.67c0.301,0.475,0.453,1.028,0.44,1.59v0.6h2.67V30.8L484.46,30.8z M492.9,38.87h-2.67l1.31-6.76
		h0.05L492.9,38.87z M486.3,45.4h2.67l0.79-4.01h3.641l0.79,4.01h2.67l-4.17-18.67h-2.23L486.3,45.4z M499.22,45.4h7.971v-2.67
		h-5.29v-16h-2.681V45.4L499.22,45.4z M509.97,45.4h7.971v-2.67h-5.29v-5.48h4.609v-2.52h-4.609v-5.48h5.29v-2.52h-7.971V45.4z"/>
</g>
</svg>
