<svg version="1.1" xmlns="http://www.w3.org/2000/svg" xmlns:xlink="http://www.w3.org/1999/xlink" viewBox="0 0 280 120" xml:space="preserve">
<title>webfonts example</title>
<desc>Hello playbil font type, Hello silom font type</desc>
    <g>
        <path d="M47.686,10.48v3.579h-0.687v6.675h0.687v3.743h-2.974v-3.743h0.328v-2.728h-1.23v2.728h0.338v3.743h-2.974v-3.743h0.677
            v-6.675h-0.677V10.48h2.974v3.579H43.81v2.512h1.23v-2.512h-0.328V10.48H47.686z"></path>
        <path d="M52.567,20.006c0.048,0.396,0.072,0.872,0.072,1.425c0,2.112-0.649,3.168-1.948,3.168c-0.909,0-1.496-0.355-1.759-1.066
            s-0.395-2.3-0.395-4.768c0-1.88,0.145-3.158,0.436-3.835s0.839-1.015,1.646-1.015c0.8,0,1.347,0.349,1.641,1.046
            s0.441,1.986,0.441,3.866l-0.01,0.697h-2.594v1.036l0.031,0.502c0.048,0.342,0.219,0.506,0.513,0.492
            c0.342-0.014,0.513-0.342,0.513-0.984v-0.338l0.01-0.226H52.567z M50.065,18.365h1.097v-0.749c0-0.602-0.181-0.902-0.543-0.902
            c-0.383,0-0.574,0.362-0.574,1.087C50.044,17.952,50.051,18.14,50.065,18.365z"></path>
        <path d="M55.52,21.534h0.595v2.943H53.49v-2.943h0.564v-8.254H53.49V10.48h2.03V21.534z"></path>
        <path d="M58.647,21.534h0.595v2.943h-2.625v-2.943h0.564v-8.254h-0.564V10.48h2.03V21.534z"></path>
        <path d="M59.888,21.052v-3.374c0-1.511,0.139-2.516,0.415-3.015c0.277-0.499,0.839-0.749,1.687-0.749
            c0.841,0,1.401,0.256,1.682,0.769s0.42,1.545,0.42,3.097v3.138l-0.01,0.82c0,1.907-0.708,2.861-2.123,2.861
            C60.579,24.6,59.888,23.417,59.888,21.052z M62.626,19.729v-1.271l-0.01-0.461v-0.42c0-0.574-0.205-0.861-0.615-0.861
            c-0.431,0-0.646,0.608-0.646,1.825v1.333c0,1.121,0.208,1.682,0.625,1.682C62.411,21.554,62.626,20.946,62.626,19.729z"></path>
        <path d="M74.685,20.734v3.743h-3.394v-3.743h0.677v-6.675h-0.677V10.48h2.799c1.203,0,2.006,0.287,2.41,0.861
            s0.605,1.716,0.605,3.425c0,1.49-0.179,2.476-0.539,2.958c-0.358,0.481-1.092,0.723-2.199,0.723h-0.441v2.287H74.685z
             M73.926,14.059v2.851h0.144h0.277c0.581,0,0.872-0.451,0.872-1.354c0-0.998-0.338-1.497-1.015-1.497H73.926z"></path>
        <path d="M79.658,21.534h0.595v2.943h-2.625v-2.943h0.564v-8.254h-0.564V10.48h2.03V21.534z"></path>
        <path d="M85.574,21.462v2.892c-0.287,0.171-0.571,0.256-0.851,0.256c-0.602,0-1.032-0.328-1.292-0.984
            c-0.232,0.656-0.619,0.984-1.159,0.984c-0.971,0-1.456-1.159-1.456-3.476c0-1.217,0.561-2.136,1.682-2.758
            c0.567-0.308,0.851-0.639,0.851-0.995c0-0.444-0.171-0.667-0.513-0.667c-0.362,0-0.543,0.267-0.543,0.8
            c0,0.109,0.017,0.273,0.051,0.492h-1.405c-0.103-0.451-0.154-0.978-0.154-1.579c0-1.675,0.711-2.512,2.133-2.512
            c1.319,0,1.979,0.865,1.979,2.594v0.831v2.974c0,0.834,0.144,1.251,0.431,1.251C85.383,21.564,85.465,21.53,85.574,21.462z
             M83.431,19.401c-0.834,0.41-1.251,0.892-1.251,1.446c0,0.479,0.202,0.718,0.605,0.718c0.431,0,0.646-0.42,0.646-1.261V19.401z"></path>
        <path d="M90.958,14.059v2.799h-0.502l-1.138,8.039c-0.321,2.222-0.967,3.333-1.938,3.333c-0.998,0-1.497-0.69-1.497-2.071
            c0-0.465,0.038-0.954,0.113-1.466h0.974c-0.027,0.191-0.041,0.355-0.041,0.492c0,0.417,0.144,0.625,0.431,0.625
            c0.26,0,0.458-0.373,0.595-1.118l-1.528-7.834h-0.533v-2.799h2.481v2.799h-0.523l0.902,4.532l0.564-4.532h-0.564v-2.799H90.958z"></path>
        <path d="M93.244,10.48v4.419c0.294-0.656,0.725-0.984,1.292-0.984c0.615,0,1.021,0.286,1.215,0.856
            c0.195,0.571,0.292,1.741,0.292,3.512v2.02c0,2.871-0.574,4.307-1.723,4.307c-0.677,0-1.135-0.403-1.374-1.21l-0.338,1.077h-0.831
            V12.828h-0.523V10.48H93.244z M93.982,16.714c-0.444,0-0.667,0.889-0.667,2.666c0,1.62,0.215,2.43,0.646,2.43
            c0.349,0,0.523-0.393,0.523-1.179l0.01-0.872l0.01-0.79l-0.01-0.779l-0.01-0.687C94.485,16.978,94.317,16.714,93.982,16.714z"></path>
        <path d="M98.853,14.059v7.475h0.605v2.943h-2.625v-2.943h0.554v-4.676h-0.554v-2.799H98.853z M98.761,10.48v2.348h-1.466V10.48
            H98.761z"></path>
        <path d="M101.991,21.534h0.595v2.943H99.96v-2.943h0.564v-8.254H99.96V10.48h2.03V21.534z"></path>
        <path d="M105.118,21.534h0.595v2.943h-2.625v-2.943h0.564v-8.254h-0.564V10.48h2.03V21.534z"></path>
    </g>
    <g>
        <path d="M38.532,52.306v-15.75h3.507v6.993h3.507v-6.993h3.486v15.75h-3.486v-6.993h-3.507v6.993H38.532z"></path>
        <path d="M63.039,47.056h-6.993v1.743c0,0.476,0.171,0.889,0.515,1.239c0.343,0.35,0.752,0.525,1.229,0.525h1.764
            c1.162,0,1.743-0.588,1.743-1.764h1.743c-0.266,2.338-1.428,3.507-3.486,3.507h-3.507c-0.952,0-1.774-0.343-2.467-1.029
            c-0.693-0.686-1.04-1.512-1.04-2.478v-5.25c0-0.952,0.346-1.771,1.04-2.457c0.693-0.686,1.515-1.029,2.467-1.029h3.507
            c0.952,0,1.771,0.343,2.457,1.029s1.029,1.505,1.029,2.457V47.056z M56.046,45.312h3.507v-1.764c0-0.476-0.171-0.885-0.514-1.229
            c-0.343-0.343-0.76-0.515-1.25-0.515c-0.476,0-0.886,0.171-1.229,0.515c-0.343,0.343-0.515,0.752-0.515,1.229V45.312z"></path>
        <path d="M66.546,52.306v-15.75h3.507v15.75H66.546z"></path>
        <path d="M73.539,52.306v-15.75h3.507v15.75H73.539z"></path>
        <path d="M84.039,40.062h3.507c0.952,0,1.771,0.343,2.457,1.029s1.029,1.505,1.029,2.457v5.25c0,0.952-0.343,1.774-1.029,2.467
            s-1.505,1.04-2.457,1.04h-3.507c-0.952,0-1.774-0.343-2.467-1.029c-0.693-0.686-1.04-1.512-1.04-2.478v-5.25
            c0-0.952,0.346-1.771,1.04-2.457C82.264,40.406,83.086,40.062,84.039,40.062z M84.039,43.549v5.25c0,0.476,0.171,0.889,0.515,1.239
            c0.343,0.35,0.752,0.525,1.229,0.525c0.49,0,0.906-0.175,1.25-0.525c0.343-0.35,0.514-0.763,0.514-1.239v-5.25
            c0-0.476-0.171-0.885-0.514-1.229c-0.343-0.343-0.76-0.515-1.25-0.515c-0.476,0-0.886,0.171-1.229,0.515
            C84.21,42.664,84.039,43.073,84.039,43.549z"></path>
        <path d="M108.545,40.062h-1.743c-0.154-1.176-0.707-1.764-1.659-1.764c-0.616,0-1.078,0.147-1.386,0.441s-0.462,0.735-0.462,1.323
            c0,0.434,0.168,0.847,0.504,1.239l3.717,4.158c0.686,0.771,1.029,1.596,1.029,2.478v0.861c0,0.952-0.343,1.774-1.029,2.467
            c-0.687,0.693-1.512,1.04-2.478,1.04h-1.743c-1.162,0-2.037-0.291-2.625-0.872c-0.588-0.581-0.882-1.459-0.882-2.635h1.764
            c0,0.126,0,0.224,0,0.294c0,0.476,0.182,0.84,0.546,1.092c0.364,0.252,0.763,0.378,1.197,0.378c0.616,0,1.061-0.15,1.333-0.451
            s0.41-0.738,0.41-1.312c0-0.448-0.168-0.861-0.504-1.239l-3.717-4.158c-0.686-0.756-1.029-1.582-1.029-2.478v-0.861
            c0-0.952,0.343-1.774,1.029-2.467s1.512-1.04,2.478-1.04h1.743C107.236,36.556,108.405,37.725,108.545,40.062z"></path>
        <path d="M112.031,38.299v-1.743h3.507v1.743H112.031z M112.031,52.306V40.062h3.507v12.243H112.031z"></path>
        <path d="M119.024,52.306v-15.75h3.507v15.75H119.024z"></path>
        <path d="M129.524,40.062h3.507c0.952,0,1.771,0.343,2.457,1.029s1.029,1.505,1.029,2.457v5.25c0,0.952-0.343,1.774-1.029,2.467
            s-1.505,1.04-2.457,1.04h-3.507c-0.952,0-1.774-0.343-2.467-1.029c-0.693-0.686-1.04-1.512-1.04-2.478v-5.25
            c0-0.952,0.346-1.771,1.04-2.457C127.75,40.406,128.572,40.062,129.524,40.062z M129.524,43.549v5.25
            c0,0.476,0.171,0.889,0.515,1.239c0.343,0.35,0.752,0.525,1.229,0.525c0.49,0,0.906-0.175,1.25-0.525
            c0.343-0.35,0.514-0.763,0.514-1.239v-5.25c0-0.476-0.171-0.885-0.514-1.229c-0.343-0.343-0.76-0.515-1.25-0.515
            c-0.476,0-0.886,0.171-1.229,0.515C129.695,42.664,129.524,43.073,129.524,43.549z"></path>
        <path d="M150.523,52.306h-3.486v-8.757c0-0.476-0.171-0.885-0.514-1.229c-0.344-0.343-0.76-0.515-1.25-0.515
            c-0.476,0-0.885,0.171-1.229,0.515c-0.343,0.343-0.514,0.752-0.514,1.229v8.757h-3.507V40.062h3.507v1.743
            c0.069-0.588,0.252-1.025,0.545-1.312c0.295-0.287,0.693-0.431,1.197-0.431h1.764c1.19,0,2.065,0.413,2.625,1.239
            c0.281-0.42,0.638-0.731,1.072-0.935c0.434-0.203,0.951-0.305,1.553-0.305h1.744c0.951,0,1.773,0.343,2.467,1.029
            s1.039,1.505,1.039,2.457v8.757h-3.506v-8.757c0-0.462-0.172-0.868-0.516-1.218c-0.343-0.35-0.752-0.525-1.229-0.525
            c-0.476,0-0.889,0.171-1.238,0.515s-0.525,0.752-0.525,1.229V52.306z"></path>
    </g>
    <g>
        <path d="M42.537,81.572h-4.573h-0.267c-0.246,0-0.436-0.046-0.569-0.139c-0.133-0.092-0.2-0.224-0.2-0.395
            c0-0.28,0.137-0.465,0.41-0.554c0.226-0.075,0.357-0.121,0.395-0.139c0.037-0.017,0.077-0.056,0.118-0.118
            c0.082-0.109,0.123-0.283,0.123-0.522V69.441c0-0.238-0.041-0.413-0.123-0.522c-0.041-0.062-0.081-0.101-0.118-0.118
            c-0.038-0.017-0.169-0.062-0.395-0.139c-0.273-0.088-0.41-0.273-0.41-0.553c0-0.172,0.067-0.303,0.2-0.396
            c0.134-0.092,0.323-0.138,0.569-0.138h0.267h4.573h0.267c0.485,0,0.728,0.178,0.728,0.533c0,0.287-0.13,0.471-0.39,0.553
            l-0.318,0.104c-0.198,0.068-0.297,0.293-0.297,0.676v10.265c0,0.383,0.099,0.608,0.297,0.677l0.318,0.103
            c0.26,0.082,0.39,0.267,0.39,0.554c0,0.355-0.243,0.533-0.728,0.533H42.537z M43.398,73.912h1.671v-4.471
            c0-0.383-0.099-0.607-0.297-0.676l-0.328-0.104c-0.26-0.082-0.39-0.266-0.39-0.553c0-0.355,0.246-0.533,0.738-0.533h0.267h4.563
            h0.277c0.513,0,0.769,0.178,0.769,0.533c0,0.279-0.137,0.465-0.41,0.553c-0.226,0.076-0.357,0.122-0.395,0.139
            c-0.038,0.018-0.077,0.057-0.118,0.118c-0.082,0.109-0.123,0.284-0.123,0.522v10.224c0,0.376,0.103,0.604,0.308,0.687l0.328,0.113
            c0.273,0.089,0.41,0.277,0.41,0.564c0,0.361-0.256,0.543-0.769,0.543h-0.277h-4.563h-0.287c-0.479,0-0.718-0.182-0.718-0.543
            c0-0.287,0.13-0.476,0.39-0.564l0.328-0.113c0.198-0.061,0.297-0.29,0.297-0.687v-4.737h-1.671V73.912z"></path>
        <path d="M58.164,67.576v13.996h-4.563h-0.267c-0.246,0-0.436-0.046-0.569-0.139c-0.134-0.092-0.2-0.224-0.2-0.395
            c0-0.28,0.137-0.465,0.41-0.554c0.226-0.075,0.357-0.121,0.395-0.139c0.038-0.017,0.077-0.056,0.118-0.118
            c0.082-0.109,0.123-0.283,0.123-0.522V69.441c0-0.238-0.041-0.413-0.123-0.522c-0.041-0.062-0.081-0.101-0.118-0.118
            c-0.038-0.017-0.169-0.062-0.395-0.139c-0.273-0.088-0.41-0.273-0.41-0.553c0-0.172,0.066-0.303,0.2-0.396
            c0.133-0.092,0.323-0.138,0.569-0.138h0.267H58.164z M59.025,75.041v-1.189c0.396-0.191,0.69-0.4,0.882-0.626
            s0.332-0.526,0.42-0.902c0.055-0.26,0.126-0.438,0.215-0.538s0.215-0.148,0.379-0.148c0.219,0,0.369,0.085,0.451,0.256
            c0.048,0.089,0.072,0.291,0.072,0.605v3.906c0,0.321-0.036,0.543-0.107,0.666c-0.072,0.123-0.204,0.186-0.395,0.186
            c-0.157,0-0.28-0.049-0.369-0.145s-0.161-0.256-0.215-0.481c-0.116-0.472-0.282-0.834-0.497-1.087
            C59.645,75.29,59.367,75.123,59.025,75.041z M59.076,67.576h4.132v3.629c0,0.213-0.041,0.366-0.123,0.462s-0.212,0.144-0.39,0.144
            c-0.15,0-0.26-0.031-0.328-0.092c-0.068-0.062-0.133-0.188-0.195-0.38c-0.26-0.793-0.641-1.397-1.143-1.815
            c-0.503-0.416-1.154-0.666-1.954-0.748V67.576z M59.086,81.572v-1.107c0.444-0.068,0.812-0.164,1.103-0.287
            c0.29-0.123,0.583-0.311,0.876-0.564c0.294-0.252,0.528-0.514,0.703-0.784c0.174-0.27,0.34-0.627,0.497-1.071
            c0.075-0.219,0.154-0.367,0.236-0.446c0.082-0.078,0.195-0.118,0.338-0.118c0.191,0,0.325,0.057,0.4,0.17
            c0.075,0.112,0.113,0.309,0.113,0.59v3.619H59.086z"></path>
        <path d="M70.489,81.572h-4.563h-0.267c-0.246,0-0.436-0.046-0.569-0.139c-0.134-0.092-0.2-0.224-0.2-0.395
            c0-0.28,0.137-0.465,0.41-0.554c0.226-0.075,0.357-0.121,0.395-0.139c0.038-0.017,0.077-0.056,0.118-0.118
            c0.082-0.109,0.123-0.283,0.123-0.522V69.441c0-0.238-0.041-0.413-0.123-0.522c-0.041-0.062-0.081-0.101-0.118-0.118
            c-0.038-0.017-0.169-0.062-0.395-0.139c-0.273-0.088-0.41-0.273-0.41-0.553c0-0.172,0.066-0.303,0.2-0.396
            c0.133-0.092,0.323-0.138,0.569-0.138h0.267h4.573h0.349c0.301,0,0.516,0.041,0.646,0.123c0.178,0.109,0.267,0.252,0.267,0.43
            c0,0.301-0.164,0.489-0.492,0.564c-0.267,0.062-0.424,0.103-0.472,0.123s-0.099,0.062-0.154,0.123
            c-0.103,0.123-0.154,0.314-0.154,0.574V81.572z M71.319,81.572v-1.148c0.335-0.062,0.6-0.13,0.794-0.205
            c0.195-0.075,0.381-0.185,0.559-0.328c0.287-0.226,0.55-0.537,0.79-0.934s0.434-0.837,0.584-1.322
            c0.109-0.376,0.21-0.623,0.302-0.743c0.093-0.12,0.228-0.18,0.405-0.18c0.191,0,0.332,0.079,0.42,0.235
            c0.041,0.076,0.062,0.227,0.062,0.451v4.174H71.319z"></path>
        <path d="M81.471,68.406c-0.349,0.123-0.595,0.291-0.738,0.502c-0.144,0.213-0.215,0.523-0.215,0.934v9.167
            c0,0.602,0.082,1.025,0.246,1.271c0.13,0.205,0.366,0.353,0.708,0.44v1.129c-1.518-0.123-2.789-0.694-3.814-1.713
            c-1.333-1.326-2-3.176-2-5.547c0-1.189,0.176-2.265,0.528-3.226c0.352-0.96,0.874-1.775,1.564-2.445
            c0.526-0.513,1.094-0.902,1.702-1.169s1.282-0.417,2.02-0.451V68.406z M82.312,68.406v-1.107c0.738,0.034,1.413,0.185,2.025,0.451
            c0.611,0.267,1.181,0.656,1.707,1.169c1.395,1.36,2.092,3.251,2.092,5.671c0,2.371-0.667,4.221-2,5.547
            c-1.025,1.025-2.3,1.596-3.825,1.713v-1.129c0.178-0.041,0.316-0.094,0.415-0.158s0.19-0.159,0.272-0.282
            c0.185-0.28,0.277-0.704,0.277-1.271v-9.167c0-0.362-0.062-0.649-0.185-0.861c-0.082-0.144-0.18-0.256-0.292-0.338
            C82.686,68.561,82.523,68.481,82.312,68.406z"></path>
        <path d="M94.791,68.406c-0.349,0.123-0.595,0.291-0.738,0.502c-0.144,0.213-0.215,0.523-0.215,0.934v9.167
            c0,0.602,0.082,1.025,0.246,1.271c0.13,0.205,0.366,0.353,0.708,0.44v1.129c-1.518-0.123-2.789-0.694-3.814-1.713
            c-1.333-1.326-2-3.176-2-5.547c0-1.189,0.176-2.265,0.528-3.226c0.352-0.96,0.874-1.775,1.564-2.445
            c0.526-0.513,1.094-0.902,1.702-1.169s1.282-0.417,2.02-0.451V68.406z M95.631,68.406v-1.107c0.738,0.034,1.413,0.185,2.025,0.451
            c0.611,0.267,1.181,0.656,1.707,1.169c1.395,1.36,2.092,3.251,2.092,5.671c0,2.371-0.667,4.221-2,5.547
            c-1.025,1.025-2.3,1.596-3.825,1.713v-1.129c0.178-0.041,0.316-0.094,0.415-0.158s0.19-0.159,0.272-0.282
            c0.185-0.28,0.277-0.704,0.277-1.271v-9.167c0-0.362-0.062-0.649-0.185-0.861c-0.082-0.144-0.18-0.256-0.292-0.338
            C96.005,68.561,95.843,68.481,95.631,68.406z"></path>
        <path d="M112.694,67.299v1.18c-0.424,0.115-0.747,0.295-0.969,0.538s-0.333,0.542-0.333,0.897c0,0.342,0.092,0.641,0.277,0.896
            c0.185,0.257,0.485,0.501,0.902,0.733c0.287,0.157,0.937,0.458,1.948,0.902c0.615,0.267,1.092,0.508,1.43,0.723
            c0.339,0.216,0.658,0.483,0.959,0.806c0.807,0.848,1.21,1.855,1.21,3.024c0,0.882-0.219,1.688-0.656,2.42s-1.039,1.306-1.805,1.723
            c-0.41,0.219-0.86,0.392-1.349,0.518s-0.945,0.19-1.369,0.19v-1.17c0.595-0.143,1.023-0.343,1.287-0.6
            c0.263-0.256,0.395-0.604,0.395-1.041c0-0.457-0.205-0.861-0.615-1.209c-0.273-0.227-0.793-0.506-1.559-0.842
            c-0.841-0.369-1.417-0.632-1.728-0.789s-0.61-0.342-0.897-0.554c-1.285-0.916-1.928-2.136-1.928-3.661
            c0-0.779,0.161-1.498,0.482-2.158c0.321-0.659,0.769-1.191,1.343-1.594C110.52,67.672,111.511,67.36,112.694,67.299z
             M112.161,80.68v1.17c-0.561,0-1.179-0.161-1.856-0.482c-0.253-0.116-0.427-0.191-0.523-0.226s-0.188-0.052-0.277-0.052
            c-0.137,0-0.239,0.023-0.308,0.067s-0.178,0.155-0.328,0.333c-0.123,0.15-0.256,0.226-0.4,0.226c-0.383,0-0.574-0.294-0.574-0.882
            v-3.732c0-0.191,0.055-0.354,0.164-0.487c0.109-0.133,0.246-0.203,0.41-0.21c0.15-0.007,0.268,0.036,0.354,0.128
            c0.085,0.093,0.159,0.255,0.22,0.487c0.157,0.588,0.384,1.139,0.682,1.65c0.297,0.514,0.644,0.947,1.041,1.303
            C111.169,80.342,111.634,80.578,112.161,80.68z M113.504,68.479V67.35c0.41,0.027,0.766,0.081,1.066,0.159
            c0.301,0.079,0.728,0.234,1.282,0.467c0.137,0.055,0.25,0.082,0.338,0.082c0.13,0,0.226-0.044,0.287-0.134l0.226-0.297
            c0.109-0.15,0.243-0.226,0.4-0.226c0.185,0,0.319,0.066,0.405,0.2c0.085,0.133,0.128,0.344,0.128,0.631v3.383
            c0,0.199-0.056,0.361-0.169,0.487c-0.112,0.127-0.258,0.19-0.436,0.19c-0.137,0-0.263-0.045-0.379-0.134
            c-0.062-0.055-0.111-0.121-0.149-0.2c-0.038-0.078-0.073-0.21-0.107-0.395c-0.075-0.335-0.205-0.68-0.39-1.035
            s-0.4-0.674-0.646-0.954C114.868,69.021,114.249,68.656,113.504,68.479z"></path>
        <path d="M119.308,67.576h2.697v1.24c-0.321,0.185-0.571,0.42-0.749,0.707c-0.294,0.465-0.492,1.016-0.595,1.651l-0.103,0.626
            c-0.034,0.197-0.108,0.354-0.22,0.466c-0.113,0.113-0.255,0.169-0.426,0.169c-0.178,0-0.323-0.061-0.436-0.184
            c-0.113-0.123-0.169-0.284-0.169-0.482V67.576z M127.388,67.576v12.048c0,0.267,0.051,0.458,0.154,0.574
            c0.055,0.068,0.106,0.111,0.154,0.128c0.048,0.018,0.205,0.061,0.472,0.129c0.328,0.074,0.492,0.263,0.492,0.563
            c0,0.178-0.089,0.321-0.267,0.431c-0.13,0.082-0.349,0.123-0.656,0.123h-0.338h-4.573h-0.338c-0.301,0-0.528-0.046-0.682-0.139
            c-0.153-0.092-0.23-0.23-0.23-0.415c0-0.301,0.164-0.489,0.492-0.563c0.267-0.068,0.424-0.111,0.472-0.129
            c0.048-0.017,0.096-0.06,0.144-0.128c0.103-0.116,0.154-0.308,0.154-0.574V67.576H127.388z M130.936,67.576v4.193
            c0,0.198-0.056,0.359-0.169,0.482c-0.112,0.123-0.258,0.184-0.436,0.184c-0.171,0-0.312-0.056-0.426-0.169
            c-0.112-0.112-0.186-0.269-0.22-0.466l-0.103-0.626c-0.103-0.636-0.301-1.187-0.595-1.651c-0.185-0.287-0.434-0.522-0.749-0.707
            v-1.24H130.936z"></path>
        <path d="M137.795,67.576v13.996h-4.563h-0.267c-0.246,0-0.436-0.046-0.569-0.139c-0.134-0.092-0.2-0.224-0.2-0.395
            c0-0.28,0.137-0.465,0.41-0.554c0.226-0.075,0.357-0.121,0.395-0.139c0.038-0.017,0.077-0.056,0.118-0.118
            c0.082-0.109,0.123-0.283,0.123-0.522V69.441c0-0.238-0.041-0.413-0.123-0.522c-0.041-0.062-0.081-0.101-0.118-0.118
            c-0.038-0.017-0.169-0.062-0.395-0.139c-0.273-0.088-0.41-0.273-0.41-0.553c0-0.172,0.066-0.303,0.2-0.396
            c0.133-0.092,0.323-0.138,0.569-0.138h0.267H137.795z M138.657,75.041v-1.189c0.396-0.191,0.69-0.4,0.882-0.626
            s0.332-0.526,0.42-0.902c0.055-0.26,0.126-0.438,0.215-0.538s0.215-0.148,0.379-0.148c0.219,0,0.369,0.085,0.451,0.256
            c0.048,0.089,0.071,0.291,0.071,0.605v3.906c0,0.321-0.035,0.543-0.107,0.666c-0.072,0.123-0.204,0.186-0.395,0.186
            c-0.157,0-0.28-0.049-0.369-0.145s-0.161-0.256-0.215-0.481c-0.116-0.472-0.282-0.834-0.497-1.087
            C139.277,75.29,138.999,75.123,138.657,75.041z M138.708,67.576h4.132v3.629c0,0.213-0.041,0.366-0.123,0.462
            s-0.211,0.144-0.389,0.144c-0.15,0-0.26-0.031-0.328-0.092c-0.068-0.062-0.134-0.188-0.195-0.38
            c-0.26-0.793-0.641-1.397-1.143-1.815c-0.503-0.416-1.154-0.666-1.954-0.748V67.576z M138.718,81.572v-1.107
            c0.444-0.068,0.812-0.164,1.103-0.287c0.29-0.123,0.583-0.311,0.876-0.564c0.294-0.252,0.527-0.514,0.703-0.784
            c0.174-0.27,0.34-0.627,0.496-1.071c0.076-0.219,0.154-0.367,0.236-0.446c0.082-0.078,0.195-0.118,0.338-0.118
            c0.191,0,0.325,0.057,0.4,0.17c0.075,0.112,0.113,0.309,0.113,0.59v3.619H138.718z"></path>
        <path d="M146.029,71.175l1.087,1.805v5.496c0,0.479,0.08,0.872,0.241,1.179c0.16,0.309,0.415,0.561,0.764,0.76l0.308,0.174
            c0.178,0.103,0.267,0.256,0.267,0.461c0,0.158-0.064,0.287-0.195,0.391c-0.109,0.088-0.334,0.133-0.676,0.133h-2.369
            c-0.622,0-0.934-0.178-0.934-0.533c0-0.123,0.033-0.221,0.098-0.292c0.064-0.072,0.207-0.169,0.426-0.292
            c0.656-0.363,0.984-1.022,0.984-1.979V71.175z M150.326,67.576l5.455,9.475v4.521h-2.8l-6.962-11.997
            c-0.15-0.26-0.273-0.44-0.369-0.544c-0.096-0.102-0.219-0.178-0.369-0.225l-0.391-0.145c-0.102-0.033-0.184-0.096-0.246-0.184
            c-0.061-0.09-0.092-0.188-0.092-0.298c0-0.116,0.031-0.224,0.092-0.323c0.062-0.099,0.145-0.169,0.246-0.21
            c0.117-0.048,0.432-0.071,0.943-0.071H150.326z M155.781,75.41l-1.088-1.836v-2.84c0-0.574-0.084-1.014-0.25-1.318
            c-0.168-0.304-0.464-0.565-0.888-0.784c-0.144-0.068-0.243-0.142-0.298-0.221c-0.055-0.078-0.082-0.179-0.082-0.302
            c0-0.186,0.061-0.32,0.18-0.405s0.312-0.128,0.58-0.128h2.562c0.35,0,0.578,0.055,0.688,0.164c0.116,0.109,0.174,0.238,0.174,0.389
            c0,0.145-0.032,0.252-0.098,0.323c-0.064,0.072-0.22,0.169-0.466,0.292c-0.362,0.186-0.636,0.469-0.82,0.852
            c-0.13,0.28-0.194,0.66-0.194,1.139V75.41z"></path>
        <path d="M164.261,67.299v1.24c-0.403,0.062-0.704,0.24-0.902,0.533c-0.198,0.295-0.298,0.715-0.298,1.262v8.47v0.44
            c0,0.158,0.033,0.323,0.098,0.498c0.064,0.174,0.148,0.322,0.252,0.445c0.109,0.137,0.225,0.234,0.348,0.293
            s0.291,0.098,0.503,0.117v1.252c-1.326,0-2.478-0.346-3.456-1.036c-0.861-0.608-1.51-1.427-1.947-2.456
            c-0.438-1.028-0.656-2.247-0.656-3.655c0-1.032,0.141-1.994,0.425-2.887c0.284-0.892,0.696-1.666,1.235-2.322
            c0.547-0.663,1.201-1.196,1.964-1.6s1.495-0.604,2.2-0.604L164.261,67.299z M165.07,68.55v-1.241
            c0.336,0.055,0.607,0.113,0.815,0.175s0.587,0.191,1.134,0.39c0.348,0.123,0.58,0.185,0.697,0.185c0.197,0,0.348-0.089,0.451-0.267
            l0.133-0.246c0.082-0.164,0.236-0.246,0.461-0.246c0.186,0,0.326,0.055,0.426,0.164s0.148,0.27,0.148,0.482v4.266
            c0,0.273-0.061,0.471-0.184,0.594s-0.264,0.186-0.421,0.186c-0.164,0-0.296-0.053-0.395-0.159c-0.1-0.106-0.18-0.278-0.241-0.519
            c-0.144-0.539-0.283-0.963-0.42-1.271c-0.295-0.648-0.629-1.176-1.006-1.578c-0.252-0.273-0.506-0.484-0.758-0.631
            C165.658,68.686,165.379,68.591,165.07,68.55z M165.102,81.85v-1.252c0.533-0.041,1.094-0.242,1.682-0.604
            c0.314-0.198,0.595-0.463,0.841-0.795c0.246-0.331,0.431-0.695,0.554-1.092c0.068-0.219,0.148-0.374,0.241-0.467
            c0.092-0.092,0.214-0.138,0.364-0.138c0.164,0,0.301,0.061,0.41,0.184s0.164,0.277,0.164,0.462c0,0.308-0.118,0.681-0.354,1.118
            c-0.235,0.438-0.538,0.84-0.907,1.209c-0.451,0.451-0.914,0.787-1.39,1.006S165.696,81.822,165.102,81.85z"></path>
        <path d="M176.504,81.572h-4.573h-0.267c-0.246,0-0.436-0.046-0.568-0.139c-0.135-0.092-0.201-0.224-0.201-0.395
            c0-0.28,0.137-0.465,0.41-0.554c0.227-0.075,0.357-0.121,0.395-0.139c0.038-0.017,0.078-0.056,0.119-0.118
            c0.082-0.109,0.123-0.283,0.123-0.522V69.441c0-0.238-0.041-0.413-0.123-0.522c-0.041-0.062-0.081-0.101-0.119-0.118
            c-0.037-0.017-0.168-0.062-0.395-0.139c-0.273-0.088-0.41-0.273-0.41-0.553c0-0.172,0.066-0.303,0.201-0.396
            c0.133-0.092,0.322-0.138,0.568-0.138h0.267h4.573h0.267c0.246,0,0.437,0.046,0.569,0.138c0.133,0.093,0.199,0.224,0.199,0.396
            c0,0.279-0.137,0.465-0.41,0.553c-0.225,0.076-0.357,0.122-0.395,0.139c-0.037,0.018-0.076,0.057-0.117,0.118
            c-0.082,0.109-0.123,0.284-0.123,0.522v10.265c0,0.239,0.041,0.413,0.123,0.522c0.041,0.062,0.08,0.102,0.117,0.118
            c0.037,0.018,0.17,0.063,0.395,0.139c0.273,0.089,0.41,0.273,0.41,0.554c0,0.171-0.066,0.303-0.199,0.395
            c-0.133,0.093-0.323,0.139-0.569,0.139H176.504z"></path>
        <path d="M184.819,81.572h-4.562h-0.267c-0.246,0-0.436-0.046-0.568-0.139c-0.135-0.092-0.201-0.224-0.201-0.395
            c0-0.28,0.137-0.465,0.41-0.554c0.227-0.075,0.357-0.121,0.395-0.139c0.038-0.017,0.078-0.056,0.119-0.118
            c0.082-0.109,0.123-0.283,0.123-0.522V69.441c0-0.238-0.041-0.413-0.123-0.522c-0.041-0.062-0.081-0.101-0.119-0.118
            c-0.037-0.017-0.168-0.062-0.395-0.139c-0.273-0.088-0.41-0.273-0.41-0.553c0-0.172,0.066-0.303,0.201-0.396
            c0.133-0.092,0.322-0.138,0.568-0.138h0.267h4.572h0.35c0.301,0,0.516,0.041,0.646,0.123c0.178,0.109,0.266,0.252,0.266,0.43
            c0,0.301-0.164,0.489-0.492,0.564c-0.266,0.062-0.424,0.103-0.471,0.123c-0.049,0.021-0.1,0.062-0.154,0.123
            c-0.104,0.123-0.154,0.314-0.154,0.574V81.572z M185.649,81.572v-1.148c0.336-0.062,0.602-0.13,0.795-0.205
            c0.195-0.075,0.381-0.185,0.559-0.328c0.287-0.226,0.551-0.537,0.791-0.934c0.238-0.396,0.434-0.837,0.584-1.322
            c0.109-0.376,0.211-0.623,0.303-0.743s0.227-0.18,0.404-0.18c0.191,0,0.332,0.079,0.42,0.235c0.041,0.076,0.062,0.227,0.062,0.451
            v4.174H185.649z"></path>
    </g>
    <g>
        <path d="M37.903,109.798c-0.154,0-0.259-0.045-0.315-0.137c-0.056-0.091-0.084-0.221-0.084-0.389c0-0.728,0.021-1.483,0.063-2.268
            s0.063-1.617,0.063-2.499c0-0.392,0-0.798,0-1.218c0-0.434-0.003-0.861-0.01-1.281c-0.007-0.42-0.018-0.812-0.032-1.176
            c-0.014-0.364-0.028-0.679-0.042-0.945c0-0.168-0.045-0.312-0.136-0.431c-0.091-0.118-0.196-0.224-0.315-0.314
            s-0.224-0.179-0.315-0.263c-0.091-0.084-0.136-0.182-0.136-0.294c0-0.042,0.031-0.112,0.094-0.21s0.147-0.199,0.252-0.305
            s0.228-0.199,0.368-0.283c0.14-0.084,0.287-0.126,0.441-0.126c0.126,0,0.28,0.028,0.462,0.084s0.357,0.122,0.525,0.199
            s0.311,0.157,0.43,0.241s0.179,0.161,0.179,0.231c0,0.126-0.053,0.308-0.158,0.546s-0.165,0.525-0.178,0.861
            c0,0.504-0.004,1.028-0.011,1.574c-0.007,0.547-0.024,1.078-0.052,1.597h5.586c0.014-0.28,0.024-0.595,0.031-0.945
            c0.007-0.35,0.011-0.707,0.011-1.071c0-0.489-0.021-0.938-0.063-1.344s-0.063-0.707-0.063-0.903c0-0.098,0.07-0.188,0.21-0.272
            c0.14-0.084,0.304-0.157,0.494-0.221c0.189-0.062,0.381-0.112,0.577-0.146c0.196-0.035,0.357-0.053,0.483-0.053
            c0.28,0,0.42,0.098,0.42,0.294c0,0.056-0.018,0.115-0.053,0.179c-0.035,0.062-0.073,0.14-0.115,0.23
            c-0.042,0.092-0.091,0.207-0.147,0.347c-0.056,0.14-0.105,0.322-0.147,0.546c-0.042,0.252-0.077,0.525-0.105,0.819
            s-0.049,0.592-0.063,0.893s-0.024,0.595-0.031,0.882c-0.007,0.287-0.011,0.535-0.011,0.745c0.112-0.014,0.228-0.024,0.347-0.031
            c0.119-0.007,0.234-0.011,0.347-0.011c0.112,0,0.199,0.018,0.262,0.053s0.095,0.123,0.095,0.263c0,0.126-0.042,0.298-0.126,0.515
            s-0.21,0.325-0.378,0.325c-0.042,0-0.091-0.007-0.147-0.021c-0.056-0.014-0.119-0.021-0.189-0.021c-0.14,0-0.21,0.084-0.21,0.252
            l-0.042,4.137c0,0.084-0.018,0.186-0.052,0.305c-0.035,0.119-0.081,0.238-0.137,0.357c-0.056,0.119-0.123,0.22-0.199,0.304
            c-0.077,0.084-0.165,0.126-0.263,0.126c-0.196,0-0.333-0.034-0.41-0.104s-0.123-0.217-0.136-0.441l-0.21-4.893
            c-0.378,0-0.844,0.011-1.396,0.031c-0.553,0.021-1.11,0.046-1.669,0.073c-0.56,0.028-1.075,0.067-1.543,0.116
            c-0.469,0.049-0.802,0.102-0.998,0.157c-0.042,0.112-0.07,0.241-0.084,0.389c-0.014,0.146-0.021,0.276-0.021,0.389v3.569
            C38.849,109.469,38.533,109.798,37.903,109.798z"></path>
        <path d="M57.475,103.33c0,0.042-0.039,0.108-0.115,0.199c-0.077,0.091-0.172,0.186-0.284,0.283
            c-0.112,0.099-0.221,0.183-0.326,0.252c-0.105,0.07-0.192,0.105-0.262,0.105c-0.63,0.056-1.215,0.088-1.753,0.095
            c-0.54,0.007-1.019,0.018-1.439,0.031c0,1.68,0.329,2.943,0.987,3.79c0.658,0.848,1.708,1.271,3.15,1.271
            c0.308,0,0.515,0.028,0.62,0.084c0.105,0.057,0.157,0.176,0.157,0.357c0,0.112-0.105,0.224-0.315,0.336s-0.581,0.168-1.113,0.168
            c-0.798,0-1.478-0.088-2.037-0.263c-0.56-0.175-1.029-0.409-1.407-0.703c-0.378-0.294-0.675-0.634-0.892-1.019
            c-0.217-0.385-0.382-0.791-0.494-1.218c-0.112-0.427-0.182-0.857-0.21-1.292c-0.028-0.434-0.042-0.847-0.042-1.238
            c0-1.4,0.129-2.573,0.389-3.518c0.259-0.945,0.598-1.708,1.018-2.289c0.42-0.581,0.906-0.994,1.459-1.239s1.124-0.367,1.712-0.367
            c0.588,0,0.987,0.045,1.197,0.136c0.21,0.092,0.315,0.256,0.315,0.494c0,0.308-0.133,0.462-0.399,0.462h-1.239
            c-0.336,0-0.662,0.07-0.977,0.21s-0.602,0.402-0.861,0.787c-0.259,0.386-0.479,0.914-0.661,1.586
            c-0.182,0.672-0.301,1.533-0.357,2.583c0.112-0.098,0.245-0.179,0.399-0.242c0.154-0.062,0.336-0.094,0.546-0.094h2.835
            C57.342,103.078,57.475,103.162,57.475,103.33z"></path>
        <path d="M68.857,108.191c0.196-0.119,0.371-0.179,0.525-0.179c0.238,0,0.357,0.092,0.357,0.273c0,0.042-0.018,0.144-0.053,0.305
            c-0.035,0.16-0.084,0.329-0.147,0.504s-0.133,0.336-0.21,0.482c-0.077,0.147-0.157,0.221-0.241,0.221
            c-0.126,0-0.242-0.018-0.347-0.053c-0.105-0.034-0.263-0.087-0.473-0.157c-0.028-0.014-0.077-0.024-0.147-0.031
            c-0.07-0.007-0.189-0.014-0.357-0.021c-0.168-0.007-0.396-0.014-0.683-0.021s-0.654-0.011-1.103-0.011
            c-0.476,0-0.857,0.004-1.144,0.011c-0.287,0.007-0.515,0.014-0.683,0.021c-0.168,0.008-0.291,0.021-0.368,0.042
            c-0.077,0.021-0.144,0.046-0.199,0.073c-0.182,0.099-0.399,0.147-0.651,0.147c-0.084,0-0.171-0.049-0.262-0.147
            c-0.091-0.098-0.179-0.206-0.263-0.325c-0.084-0.118-0.15-0.237-0.199-0.356c-0.049-0.119-0.074-0.2-0.074-0.242
            c0-0.111,0.07-0.241,0.21-0.389c0.14-0.146,0.21-0.353,0.21-0.619c0.014-0.224,0.024-0.497,0.032-0.819
            c0.007-0.321,0.01-0.699,0.01-1.134v-2.961c0-1.021-0.035-1.837-0.105-2.446c-0.07-0.609-0.144-1.085-0.22-1.428
            c-0.077-0.343-0.151-0.581-0.221-0.714c-0.07-0.134-0.105-0.242-0.105-0.326c0-0.069,0.066-0.175,0.199-0.314
            c0.133-0.14,0.287-0.276,0.462-0.41c0.175-0.133,0.35-0.248,0.525-0.346c0.175-0.099,0.297-0.147,0.368-0.147
            c0.126,0,0.28,0.046,0.462,0.137c0.182,0.091,0.273,0.214,0.273,0.367c0,0.126-0.028,0.28-0.084,0.462
            c-0.056,0.183-0.084,0.371-0.084,0.567c0,0.63-0.021,1.253-0.063,1.869s-0.063,1.218-0.063,1.806c0,0.393,0.007,0.76,0.021,1.103
            c0.014,0.343,0.021,0.745,0.021,1.207c0,0.435-0.014,0.879-0.042,1.334c-0.028,0.455-0.056,0.879-0.084,1.271
            c-0.028,0.392-0.056,0.735-0.084,1.029c-0.028,0.294-0.042,0.504-0.042,0.63c0,0.112,0.084,0.168,0.252,0.168
            c0.07,0,0.143-0.014,0.22-0.042s0.165-0.042,0.263-0.042l3.801-0.147C68.465,108.377,68.661,108.311,68.857,108.191z"></path>
        <path d="M79.756,108.191c0.196-0.119,0.371-0.179,0.525-0.179c0.238,0,0.357,0.092,0.357,0.273c0,0.042-0.018,0.144-0.053,0.305
            c-0.035,0.16-0.084,0.329-0.147,0.504s-0.133,0.336-0.21,0.482c-0.077,0.147-0.157,0.221-0.241,0.221
            c-0.126,0-0.242-0.018-0.347-0.053c-0.105-0.034-0.263-0.087-0.473-0.157c-0.028-0.014-0.077-0.024-0.147-0.031
            c-0.07-0.007-0.189-0.014-0.357-0.021c-0.168-0.007-0.396-0.014-0.683-0.021s-0.654-0.011-1.103-0.011
            c-0.476,0-0.857,0.004-1.144,0.011c-0.287,0.007-0.515,0.014-0.683,0.021c-0.168,0.008-0.291,0.021-0.368,0.042
            c-0.077,0.021-0.144,0.046-0.199,0.073c-0.182,0.099-0.399,0.147-0.651,0.147c-0.084,0-0.171-0.049-0.262-0.147
            c-0.091-0.098-0.179-0.206-0.263-0.325c-0.084-0.118-0.15-0.237-0.199-0.356c-0.049-0.119-0.074-0.2-0.074-0.242
            c0-0.111,0.07-0.241,0.21-0.389c0.14-0.146,0.21-0.353,0.21-0.619c0.014-0.224,0.024-0.497,0.032-0.819
            c0.007-0.321,0.01-0.699,0.01-1.134v-2.961c0-1.021-0.035-1.837-0.105-2.446c-0.07-0.609-0.144-1.085-0.22-1.428
            c-0.077-0.343-0.151-0.581-0.221-0.714c-0.07-0.134-0.105-0.242-0.105-0.326c0-0.069,0.066-0.175,0.199-0.314
            c0.133-0.14,0.287-0.276,0.462-0.41c0.175-0.133,0.35-0.248,0.525-0.346c0.175-0.099,0.297-0.147,0.368-0.147
            c0.126,0,0.28,0.046,0.462,0.137c0.182,0.091,0.273,0.214,0.273,0.367c0,0.126-0.028,0.28-0.084,0.462
            c-0.056,0.183-0.084,0.371-0.084,0.567c0,0.63-0.021,1.253-0.063,1.869s-0.063,1.218-0.063,1.806c0,0.393,0.007,0.76,0.021,1.103
            c0.014,0.343,0.021,0.745,0.021,1.207c0,0.435-0.014,0.879-0.042,1.334c-0.028,0.455-0.056,0.879-0.084,1.271
            c-0.028,0.392-0.056,0.735-0.084,1.029c-0.028,0.294-0.042,0.504-0.042,0.63c0,0.112,0.084,0.168,0.252,0.168
            c0.07,0,0.143-0.014,0.22-0.042s0.165-0.042,0.263-0.042l3.801-0.147C79.364,108.377,79.56,108.311,79.756,108.191z"></path>
        <path d="M83.473,101.965c0.196-0.714,0.511-1.365,0.945-1.953s0.99-1.067,1.669-1.438s1.501-0.557,2.468-0.557
            c0.56,0,1.092,0.108,1.596,0.326c0.504,0.217,0.945,0.553,1.323,1.008s0.679,1.036,0.903,1.743s0.336,1.543,0.336,2.509
            c0,0.924-0.144,1.743-0.43,2.457c-0.287,0.714-0.669,1.312-1.145,1.796c-0.476,0.482-1.019,0.851-1.627,1.103
            c-0.609,0.252-1.243,0.378-1.901,0.378c-0.518,0-1.043-0.112-1.575-0.336c-0.532-0.224-1.008-0.557-1.428-0.998
            c-0.42-0.44-0.763-0.99-1.029-1.648c-0.266-0.657-0.399-1.421-0.399-2.289C83.179,103.379,83.277,102.679,83.473,101.965z
             M84.838,104.821c0.098,0.476,0.276,0.948,0.536,1.417c0.259,0.47,0.612,0.879,1.061,1.229c0.448,0.351,1.022,0.525,1.722,0.525
            c0.294,0,0.623-0.056,0.987-0.168c0.364-0.112,0.71-0.322,1.04-0.63c0.329-0.309,0.602-0.731,0.819-1.271
            c0.217-0.539,0.326-1.229,0.326-2.069c0-0.867-0.091-1.596-0.273-2.184c-0.182-0.588-0.42-1.061-0.714-1.418
            c-0.294-0.356-0.63-0.615-1.008-0.776s-0.77-0.242-1.176-0.242c-0.546,0-1.037,0.123-1.47,0.368
            c-0.434,0.245-0.798,0.57-1.092,0.977s-0.518,0.882-0.672,1.428c-0.154,0.546-0.231,1.12-0.231,1.722
            C84.691,103.98,84.74,104.345,84.838,104.821z"></path>
        <path d="M103.654,109.798c-0.154,0-0.259-0.045-0.315-0.137c-0.056-0.091-0.084-0.221-0.084-0.389c0-0.728,0.021-1.483,0.063-2.268
            s0.063-1.617,0.063-2.499c0-0.392,0-0.798,0-1.218c0-0.434-0.003-0.861-0.01-1.281c-0.007-0.42-0.018-0.812-0.032-1.176
            c-0.014-0.364-0.028-0.679-0.042-0.945c0-0.168-0.045-0.312-0.136-0.431c-0.091-0.118-0.196-0.224-0.315-0.314
            s-0.224-0.179-0.315-0.263c-0.091-0.084-0.136-0.182-0.136-0.294c0-0.042,0.031-0.112,0.094-0.21s0.147-0.199,0.252-0.305
            s0.228-0.199,0.368-0.283c0.14-0.084,0.287-0.126,0.441-0.126c0.126,0,0.28,0.028,0.462,0.084s0.357,0.122,0.525,0.199
            s0.311,0.157,0.43,0.241s0.179,0.161,0.179,0.231c0,0.126-0.053,0.308-0.158,0.546s-0.165,0.525-0.178,0.861
            c0,0.504-0.004,1.028-0.011,1.574c-0.007,0.547-0.024,1.078-0.052,1.597h5.586c0.014-0.28,0.024-0.595,0.031-0.945
            c0.007-0.35,0.011-0.707,0.011-1.071c0-0.489-0.021-0.938-0.063-1.344s-0.063-0.707-0.063-0.903c0-0.098,0.07-0.188,0.21-0.272
            c0.14-0.084,0.304-0.157,0.494-0.221c0.189-0.062,0.381-0.112,0.577-0.146c0.196-0.035,0.357-0.053,0.483-0.053
            c0.28,0,0.42,0.098,0.42,0.294c0,0.056-0.018,0.115-0.053,0.179c-0.035,0.062-0.073,0.14-0.115,0.23
            c-0.042,0.092-0.091,0.207-0.147,0.347c-0.056,0.14-0.105,0.322-0.147,0.546c-0.042,0.252-0.077,0.525-0.105,0.819
            s-0.049,0.592-0.063,0.893s-0.024,0.595-0.031,0.882c-0.007,0.287-0.011,0.535-0.011,0.745c0.112-0.014,0.228-0.024,0.347-0.031
            c0.119-0.007,0.234-0.011,0.347-0.011c0.112,0,0.199,0.018,0.262,0.053s0.095,0.123,0.095,0.263c0,0.126-0.042,0.298-0.126,0.515
            s-0.21,0.325-0.378,0.325c-0.042,0-0.091-0.007-0.147-0.021c-0.056-0.014-0.119-0.021-0.189-0.021c-0.14,0-0.21,0.084-0.21,0.252
            l-0.042,4.137c0,0.084-0.018,0.186-0.052,0.305c-0.035,0.119-0.081,0.238-0.137,0.357c-0.056,0.119-0.123,0.22-0.199,0.304
            c-0.077,0.084-0.165,0.126-0.263,0.126c-0.196,0-0.333-0.034-0.41-0.104s-0.123-0.217-0.136-0.441l-0.21-4.893
            c-0.378,0-0.844,0.011-1.396,0.031c-0.553,0.021-1.11,0.046-1.669,0.073c-0.56,0.028-1.075,0.067-1.543,0.116
            c-0.469,0.049-0.802,0.102-0.998,0.157c-0.042,0.112-0.07,0.241-0.084,0.389c-0.014,0.146-0.021,0.276-0.021,0.389v3.569
            C104.599,109.469,104.284,109.798,103.654,109.798z"></path>
        <path d="M123.226,103.33c0,0.042-0.039,0.108-0.115,0.199c-0.077,0.091-0.172,0.186-0.284,0.283
            c-0.112,0.099-0.221,0.183-0.326,0.252c-0.105,0.07-0.192,0.105-0.262,0.105c-0.63,0.056-1.215,0.088-1.753,0.095
            c-0.54,0.007-1.019,0.018-1.439,0.031c0,1.68,0.329,2.943,0.987,3.79c0.658,0.848,1.708,1.271,3.15,1.271
            c0.308,0,0.515,0.028,0.62,0.084c0.105,0.057,0.157,0.176,0.157,0.357c0,0.112-0.105,0.224-0.315,0.336s-0.581,0.168-1.113,0.168
            c-0.798,0-1.478-0.088-2.037-0.263c-0.56-0.175-1.029-0.409-1.407-0.703c-0.378-0.294-0.675-0.634-0.892-1.019
            c-0.217-0.385-0.382-0.791-0.494-1.218c-0.112-0.427-0.182-0.857-0.21-1.292c-0.028-0.434-0.042-0.847-0.042-1.238
            c0-1.4,0.129-2.573,0.389-3.518c0.259-0.945,0.598-1.708,1.018-2.289c0.42-0.581,0.906-0.994,1.459-1.239s1.124-0.367,1.712-0.367
            c0.588,0,0.987,0.045,1.197,0.136c0.21,0.092,0.315,0.256,0.315,0.494c0,0.308-0.133,0.462-0.399,0.462h-1.239
            c-0.336,0-0.662,0.07-0.977,0.21s-0.602,0.402-0.861,0.787c-0.259,0.386-0.479,0.914-0.661,1.586
            c-0.182,0.672-0.301,1.533-0.357,2.583c0.112-0.098,0.245-0.179,0.399-0.242c0.154-0.062,0.336-0.094,0.546-0.094h2.835
            C123.092,103.078,123.226,103.162,123.226,103.33z"></path>
        <path d="M130.26,96.872c0.126-0.021,0.301-0.031,0.525-0.031c0.532,0,1.025,0.077,1.48,0.231c0.455,0.153,0.851,0.356,1.187,0.608
            s0.602,0.536,0.798,0.851c0.196,0.315,0.294,0.634,0.294,0.956c0,0.504-0.084,0.934-0.252,1.291s-0.381,0.654-0.64,0.893
            c-0.259,0.238-0.536,0.431-0.83,0.577c-0.294,0.147-0.567,0.263-0.819,0.347c-0.336,0.112-0.54,0.186-0.609,0.221
            s-0.105,0.073-0.105,0.115s0.056,0.092,0.168,0.147c0.112,0.056,0.357,0.203,0.735,0.44c0.378,0.238,0.826,0.525,1.344,0.861
            s1.078,0.707,1.68,1.113c0.448,0.294,0.899,0.584,1.354,0.871c0.455,0.287,0.889,0.563,1.302,0.83
            c0.413,0.266,0.794,0.504,1.145,0.714s0.637,0.385,0.861,0.524c0.574,0.322,1.147,0.483,1.721,0.483
            c0.057,0,0.109,0.028,0.158,0.084s0.073,0.133,0.073,0.23c0,0.07-0.06,0.176-0.179,0.315s-0.259,0.28-0.42,0.42
            c-0.16,0.14-0.322,0.263-0.483,0.367c-0.161,0.105-0.283,0.158-0.367,0.158c-0.154,0-0.469-0.154-0.945-0.462
            c-0.476-0.309-1.04-0.693-1.69-1.155s-1.358-0.973-2.121-1.533c-0.763-0.56-1.516-1.085-2.257-1.575
            c-0.742-0.489-1.438-0.917-2.089-1.281c-0.651-0.363-1.187-0.588-1.606-0.672c-0.028,0.28-0.049,0.592-0.063,0.935
            c-0.014,0.344-0.021,0.683-0.021,1.019v0.567c0,0.574,0.01,1.043,0.031,1.407s0.042,0.661,0.063,0.893
            c0.021,0.23,0.042,0.416,0.063,0.556c0.021,0.141,0.032,0.267,0.032,0.378c0,0.141-0.039,0.238-0.116,0.295
            c-0.077,0.056-0.213,0.084-0.409,0.084c-0.098,0-0.231-0.019-0.399-0.053c-0.168-0.035-0.333-0.077-0.493-0.126
            c-0.161-0.049-0.298-0.112-0.41-0.189c-0.112-0.076-0.168-0.157-0.168-0.241c0-0.07,0.018-0.14,0.052-0.21
            c0.035-0.07,0.077-0.164,0.126-0.283c0.049-0.119,0.098-0.27,0.147-0.452c0.049-0.182,0.08-0.405,0.094-0.672
            c0-0.111,0.007-0.381,0.021-0.809c0.014-0.427,0.032-0.927,0.053-1.501s0.038-1.18,0.052-1.816
            c0.014-0.638,0.021-1.222,0.021-1.754c0-0.238-0.003-0.539-0.01-0.903c-0.007-0.363-0.021-0.725-0.042-1.081
            c-0.021-0.357-0.049-0.672-0.084-0.945c-0.035-0.272-0.081-0.431-0.137-0.473c-0.294-0.168-0.441-0.378-0.441-0.63
            c0-0.182,0.14-0.308,0.42-0.378l1.827-0.482C130.008,96.918,130.134,96.894,130.26,96.872z M129.725,102.427
            c0.049,0.028,0.102,0.042,0.158,0.042c0.07,0,0.182-0.035,0.336-0.104c0.154-0.07,0.413-0.189,0.777-0.357
            c0.126-0.056,0.263-0.119,0.41-0.189c0.147-0.069,0.297-0.157,0.452-0.262c0.154-0.105,0.294-0.231,0.42-0.378
            c0.126-0.147,0.231-0.326,0.315-0.536c0.154-0.462,0.231-0.931,0.231-1.407c0-0.195-0.032-0.356-0.095-0.482
            s-0.136-0.245-0.22-0.357c-0.028-0.042-0.091-0.091-0.189-0.146c-0.098-0.056-0.207-0.108-0.326-0.157
            c-0.119-0.05-0.231-0.088-0.336-0.116c-0.105-0.027-0.186-0.042-0.242-0.042s-0.161,0.011-0.315,0.031
            c-0.154,0.021-0.312,0.053-0.472,0.095c-0.161,0.042-0.305,0.092-0.431,0.147s-0.196,0.119-0.21,0.188
            c-0.07,0.322-0.126,0.669-0.168,1.04s-0.077,0.734-0.105,1.092c-0.028,0.357-0.046,0.687-0.053,0.987
            c-0.007,0.301-0.01,0.535-0.01,0.703C129.651,102.329,129.675,102.399,129.725,102.427z"></path>
        <path d="M142.598,102.091c0.231-0.756,0.535-1.403,0.914-1.942c0.377-0.539,0.809-0.979,1.291-1.323
            c0.482-0.343,0.983-0.616,1.502-0.818c0.518-0.203,1.025-0.344,1.521-0.421c0.498-0.076,0.941-0.115,1.334-0.115
            c0.588,0,1.043,0.112,1.365,0.336c0.322,0.225,0.482,0.441,0.482,0.651c0,0.084-0.041,0.186-0.125,0.305s-0.186,0.234-0.305,0.346
            c-0.119,0.112-0.245,0.207-0.379,0.284c-0.133,0.077-0.24,0.115-0.324,0.115s-0.166-0.049-0.242-0.146
            c-0.077-0.099-0.168-0.207-0.273-0.326c-0.104-0.118-0.234-0.228-0.389-0.325c-0.153-0.098-0.343-0.147-0.566-0.147
            c-0.672,0-1.257,0.116-1.754,0.347c-0.496,0.231-0.924,0.525-1.28,0.882c-0.357,0.357-0.647,0.76-0.872,1.208
            c-0.224,0.448-0.398,0.889-0.525,1.323c-0.125,0.434-0.213,0.836-0.262,1.207s-0.074,0.661-0.074,0.871
            c0,0.406,0.088,0.865,0.264,1.376c0.174,0.511,0.423,0.99,0.745,1.438c0.321,0.448,0.71,0.822,1.165,1.123
            c0.455,0.302,0.956,0.452,1.502,0.452c0.504,0,0.963-0.088,1.375-0.263c0.413-0.175,0.777-0.371,1.092-0.588
            c0.315-0.217,0.585-0.413,0.809-0.588c0.225-0.175,0.399-0.263,0.525-0.263c0.14,0,0.248,0.042,0.326,0.126
            c0.076,0.084,0.115,0.189,0.115,0.315c0,0.056-0.046,0.15-0.137,0.283c-0.092,0.133-0.217,0.283-0.378,0.451
            s-0.343,0.34-0.546,0.515s-0.424,0.325-0.662,0.451c-0.14,0.084-0.328,0.165-0.566,0.242s-0.498,0.144-0.777,0.199
            c-0.28,0.056-0.574,0.102-0.882,0.137c-0.308,0.034-0.603,0.053-0.882,0.053c-0.393,0-0.848-0.085-1.365-0.253
            s-1.008-0.451-1.471-0.85c-0.461-0.399-0.85-0.925-1.164-1.575c-0.316-0.651-0.473-1.46-0.473-2.426
            C142.252,103.736,142.367,102.847,142.598,102.091z"></path>
        <path d="M155.24,97.45c0.062-0.14,0.199-0.21,0.408-0.21c0.098,0,0.242,0.042,0.432,0.126c0.188,0.084,0.377,0.186,0.566,0.304
            c0.189,0.119,0.357,0.245,0.504,0.379c0.146,0.133,0.221,0.255,0.221,0.367s-0.039,0.228-0.115,0.347
            c-0.078,0.119-0.158,0.312-0.242,0.577c-0.084,0.267-0.164,0.645-0.241,1.134c-0.077,0.49-0.115,1.162-0.115,2.017
            c0,0.896,0.024,1.677,0.073,2.341c0.049,0.665,0.192,1.257,0.431,1.774c0.098,0.238,0.266,0.466,0.504,0.683
            c0.237,0.218,0.501,0.41,0.788,0.578c0.286,0.168,0.584,0.301,0.893,0.398c0.307,0.099,0.588,0.147,0.84,0.147
            c0.531,0,0.986-0.126,1.364-0.378s0.693-0.585,0.945-0.998c0.252-0.412,0.451-0.878,0.599-1.396
            c0.146-0.518,0.255-1.046,0.325-1.585c0.069-0.539,0.116-1.061,0.137-1.564s0.031-0.945,0.031-1.323
            c0-0.504-0.015-0.924-0.042-1.26c-0.028-0.336-0.057-0.609-0.084-0.819c-0.028-0.21-0.057-0.371-0.084-0.483
            c-0.028-0.111-0.042-0.202-0.042-0.272c0-0.182,0.077-0.308,0.231-0.378c0.153-0.07,0.342-0.105,0.566-0.105
            c0.266,0,0.508,0.06,0.725,0.179s0.326,0.298,0.326,0.535c0,0.168-0.021,0.452-0.063,0.851c-0.042,0.399-0.095,0.854-0.157,1.365
            c-0.063,0.512-0.137,1.054-0.221,1.628s-0.172,1.123-0.263,1.648c-0.091,0.524-0.186,1.001-0.284,1.428
            c-0.098,0.427-0.188,0.753-0.272,0.977c-0.336,0.826-0.808,1.48-1.417,1.963c-0.609,0.483-1.215,0.844-1.816,1.082
            c-0.154,0.056-0.302,0.091-0.441,0.104c-0.141,0.015-0.28,0.021-0.42,0.021c-0.28,0-0.602-0.042-0.967-0.126
            c-0.363-0.084-0.724-0.206-1.08-0.367c-0.357-0.161-0.69-0.36-0.998-0.599c-0.309-0.238-0.539-0.504-0.693-0.798
            c-0.168-0.322-0.312-0.802-0.43-1.438c-0.119-0.638-0.218-1.383-0.295-2.237c-0.076-0.854-0.133-1.788-0.168-2.803
            c-0.035-1.016-0.053-2.055-0.053-3.119C155.145,97.821,155.177,97.59,155.24,97.45z"></path>
        <path d="M176.628,108.191c0.196-0.119,0.37-0.179,0.524-0.179c0.238,0,0.357,0.092,0.357,0.273c0,0.042-0.018,0.144-0.053,0.305
            c-0.035,0.16-0.084,0.329-0.146,0.504c-0.063,0.175-0.134,0.336-0.211,0.482c-0.076,0.147-0.156,0.221-0.24,0.221
            c-0.127,0-0.242-0.018-0.348-0.053c-0.104-0.034-0.262-0.087-0.473-0.157c-0.027-0.014-0.076-0.024-0.146-0.031
            s-0.189-0.014-0.357-0.021c-0.168-0.007-0.395-0.014-0.682-0.021s-0.654-0.011-1.104-0.011c-0.476,0-0.857,0.004-1.144,0.011
            c-0.287,0.007-0.515,0.014-0.683,0.021c-0.168,0.008-0.291,0.021-0.367,0.042c-0.078,0.021-0.145,0.046-0.199,0.073
            c-0.183,0.099-0.4,0.147-0.652,0.147c-0.084,0-0.171-0.049-0.262-0.147c-0.092-0.098-0.179-0.206-0.263-0.325
            c-0.084-0.118-0.15-0.237-0.199-0.356c-0.05-0.119-0.073-0.2-0.073-0.242c0-0.111,0.069-0.241,0.209-0.389
            c0.141-0.146,0.211-0.353,0.211-0.619c0.014-0.224,0.023-0.497,0.031-0.819c0.007-0.321,0.01-0.699,0.01-1.134v-2.961
            c0-1.021-0.035-1.837-0.104-2.446c-0.07-0.609-0.144-1.085-0.22-1.428c-0.078-0.343-0.151-0.581-0.221-0.714
            c-0.07-0.134-0.105-0.242-0.105-0.326c0-0.069,0.066-0.175,0.199-0.314s0.287-0.276,0.463-0.41c0.174-0.133,0.35-0.248,0.524-0.346
            c0.175-0.099,0.298-0.147,0.368-0.147c0.125,0,0.279,0.046,0.461,0.137s0.273,0.214,0.273,0.367c0,0.126-0.028,0.28-0.084,0.462
            c-0.057,0.183-0.084,0.371-0.084,0.567c0,0.63-0.021,1.253-0.062,1.869c-0.043,0.616-0.063,1.218-0.063,1.806
            c0,0.393,0.007,0.76,0.021,1.103s0.021,0.745,0.021,1.207c0,0.435-0.014,0.879-0.042,1.334s-0.056,0.879-0.084,1.271
            s-0.056,0.735-0.084,1.029s-0.042,0.504-0.042,0.63c0,0.112,0.084,0.168,0.252,0.168c0.07,0,0.143-0.014,0.221-0.042
            c0.076-0.028,0.164-0.042,0.262-0.042l3.801-0.147C176.236,108.377,176.432,108.311,176.628,108.191z"></path>
        <path d="M182.004,106.638c-0.267,0.133-0.498,0.374-0.693,0.725l-1.05,1.826c-0.07,0.126-0.112,0.26-0.126,0.399
            s-0.119,0.21-0.314,0.21c-0.393,0-0.708-0.042-0.945-0.126c-0.238-0.084-0.357-0.203-0.357-0.357c0-0.126,0.07-0.259,0.21-0.398
            s0.301-0.329,0.483-0.567c0.252-0.321,0.531-0.707,0.84-1.154c0.308-0.448,0.615-0.917,0.924-1.407
            c0.308-0.49,0.609-0.983,0.902-1.48c0.295-0.497,0.554-0.956,0.777-1.376c0.225-0.42,0.406-0.787,0.547-1.103
            c0.139-0.314,0.209-0.535,0.209-0.661c0-0.28-0.238-0.658-0.713-1.134l-1.723-1.743c-0.196-0.21-0.364-0.357-0.504-0.441
            c-0.141-0.084-0.21-0.182-0.21-0.294c0-0.056,0.052-0.122,0.157-0.199s0.228-0.154,0.367-0.231
            c0.141-0.076,0.284-0.143,0.432-0.199c0.146-0.056,0.269-0.084,0.367-0.084c0.195,0,0.35,0.007,0.461,0.021
            c0.113,0.014,0.207,0.045,0.284,0.094c0.077,0.05,0.14,0.123,0.188,0.221c0.049,0.099,0.109,0.231,0.18,0.399
            c0.027,0.084,0.115,0.224,0.262,0.42s0.297,0.392,0.451,0.588c1.135,1.372,2.114,2.527,2.94,3.465
            c0.826,0.938,1.578,1.761,2.257,2.468c0.68,0.707,1.33,1.348,1.953,1.921c0.623,0.574,1.307,1.19,2.049,1.849
            c0.139,0.126,0.271,0.21,0.398,0.252c0.125,0.042,0.234,0.077,0.326,0.104c0.09,0.028,0.164,0.066,0.219,0.116
            c0.057,0.049,0.084,0.136,0.084,0.262c0,0.057-0.037,0.137-0.115,0.242c-0.076,0.104-0.172,0.21-0.283,0.314
            c-0.111,0.105-0.225,0.192-0.336,0.263s-0.209,0.105-0.293,0.105h-0.631c-0.111,0-0.189-0.05-0.23-0.147
            c-0.043-0.098-0.098-0.189-0.168-0.273c-0.463-0.63-1.4-1.658-2.814-3.087h-5.564C182.668,106.438,182.27,106.505,182.004,106.638z
             M183.033,104.338c-0.183,0.322-0.302,0.532-0.357,0.63c-0.057,0.099-0.084,0.183-0.084,0.252c0,0.057,0.018,0.102,0.053,0.137
            c0.034,0.035,0.122,0.06,0.262,0.073c0.141,0.015,0.35,0.024,0.631,0.031c0.279,0.008,0.672,0.011,1.176,0.011
            c0.546,0,1-0.003,1.365-0.011c0.363-0.007,0.657-0.017,0.881-0.031c0.225-0.014,0.393-0.031,0.505-0.053
            c0.112-0.021,0.196-0.045,0.252-0.073l-3.298-3.359L183.033,104.338z"></path>
        <path d="M197.008,101.282c0.007-0.259,0.011-0.521,0.011-0.787c0-0.476-0.095-0.819-0.283-1.029c-0.189-0.21-0.399-0.36-0.63-0.451
            c-0.231-0.091-0.441-0.172-0.63-0.242c-0.189-0.069-0.284-0.195-0.284-0.378c0-0.098,0.077-0.202,0.231-0.314l0.756-0.609
            c0.112-0.098,0.206-0.16,0.283-0.188s0.15-0.042,0.221-0.042c0.084,0,0.164,0.024,0.241,0.073s0.172,0.144,0.284,0.283
            c0.812,0.966,1.645,1.933,2.499,2.898c0.854,0.966,1.648,1.848,2.383,2.646c0.735,0.798,1.372,1.478,1.911,2.037
            c0.539,0.561,0.906,0.924,1.103,1.092c0.112-0.714,0.192-1.396,0.241-2.047c0.05-0.651,0.074-1.319,0.074-2.006
            c0-0.546-0.021-1.021-0.063-1.428s-0.084-0.749-0.126-1.029s-0.084-0.504-0.126-0.672s-0.062-0.301-0.062-0.399
            c0.014-0.126,0.073-0.227,0.178-0.304c0.105-0.077,0.234-0.137,0.389-0.179s0.315-0.07,0.483-0.084s0.321-0.021,0.462-0.021
            c0.196,0,0.329,0.06,0.399,0.179c0.069,0.119,0.104,0.256,0.104,0.409c0,0.141-0.035,0.371-0.104,0.693
            c-0.07,0.322-0.147,0.756-0.231,1.302s-0.161,1.229-0.231,2.048c-0.069,0.819-0.104,1.803-0.104,2.95
            c0,0.351,0.007,0.725,0.021,1.124c0.015,0.398,0.021,0.822,0.021,1.271c0,0.14-0.063,0.29-0.189,0.451s-0.27,0.309-0.43,0.441
            c-0.161,0.133-0.319,0.245-0.473,0.336c-0.154,0.091-0.26,0.136-0.315,0.136c-0.07,0-0.13-0.076-0.179-0.23
            s-0.108-0.35-0.178-0.588c-0.07-0.238-0.172-0.504-0.305-0.798c-0.134-0.294-0.326-0.588-0.578-0.883
            c-0.546-0.644-1.109-1.277-1.69-1.9c-0.581-0.622-1.127-1.203-1.638-1.742s-0.974-1.019-1.386-1.439
            c-0.413-0.42-0.725-0.748-0.935-0.986c-0.042,0.588-0.077,1.193-0.105,1.816s-0.045,1.229-0.052,1.816
            c-0.008,0.588-0.015,1.138-0.021,1.648c-0.007,0.512-0.011,0.941-0.011,1.292c0,0.308,0.007,0.619,0.021,0.934
            c0.014,0.315,0.021,0.557,0.021,0.725c0,0.112-0.024,0.229-0.073,0.347c-0.049,0.119-0.15,0.199-0.305,0.241
            c-0.336,0.084-0.592,0.147-0.767,0.189s-0.339,0.063-0.493,0.063c-0.267,0-0.399-0.099-0.399-0.295c0-0.111,0.035-0.22,0.105-0.325
            c0.07-0.104,0.15-0.237,0.241-0.398s0.179-0.375,0.263-0.641s0.14-0.609,0.168-1.029l0.252-5.187
            C196.99,101.804,197.001,101.542,197.008,101.282z"></path>
        <path d="M212.044,97.45c0.062-0.14,0.199-0.21,0.409-0.21c0.098,0,0.241,0.042,0.431,0.126c0.188,0.084,0.378,0.186,0.567,0.304
            c0.188,0.119,0.356,0.245,0.504,0.379c0.146,0.133,0.22,0.255,0.22,0.367s-0.038,0.228-0.115,0.347s-0.157,0.312-0.241,0.577
            c-0.084,0.267-0.165,0.645-0.241,1.134c-0.077,0.49-0.116,1.162-0.116,2.017c0,0.896,0.024,1.677,0.074,2.341
            c0.049,0.665,0.191,1.257,0.43,1.774c0.099,0.238,0.267,0.466,0.504,0.683c0.238,0.218,0.501,0.41,0.788,0.578
            s0.584,0.301,0.893,0.398c0.308,0.099,0.588,0.147,0.84,0.147c0.532,0,0.987-0.126,1.365-0.378s0.692-0.585,0.944-0.998
            c0.252-0.412,0.452-0.878,0.599-1.396c0.147-0.518,0.256-1.046,0.326-1.585c0.069-0.539,0.115-1.061,0.136-1.564
            c0.021-0.504,0.032-0.945,0.032-1.323c0-0.504-0.015-0.924-0.042-1.26c-0.028-0.336-0.057-0.609-0.084-0.819
            c-0.028-0.21-0.057-0.371-0.084-0.483c-0.028-0.111-0.042-0.202-0.042-0.272c0-0.182,0.076-0.308,0.23-0.378
            s0.343-0.105,0.567-0.105c0.266,0,0.507,0.06,0.725,0.179c0.217,0.119,0.325,0.298,0.325,0.535c0,0.168-0.021,0.452-0.063,0.851
            c-0.042,0.399-0.094,0.854-0.157,1.365c-0.062,0.512-0.137,1.054-0.221,1.628s-0.171,1.123-0.262,1.648
            c-0.092,0.524-0.187,1.001-0.284,1.428s-0.188,0.753-0.272,0.977c-0.336,0.826-0.809,1.48-1.418,1.963
            c-0.608,0.483-1.215,0.844-1.816,1.082c-0.154,0.056-0.301,0.091-0.441,0.104c-0.14,0.015-0.279,0.021-0.42,0.021
            c-0.28,0-0.602-0.042-0.966-0.126s-0.725-0.206-1.081-0.367c-0.357-0.161-0.69-0.36-0.998-0.599s-0.539-0.504-0.692-0.798
            c-0.168-0.322-0.312-0.802-0.431-1.438c-0.119-0.638-0.218-1.383-0.294-2.237c-0.077-0.854-0.134-1.788-0.168-2.803
            c-0.035-1.016-0.053-2.055-0.053-3.119C211.949,97.821,211.98,97.59,212.044,97.45z"></path>
        <path d="M237.255,99.98c0.447-0.749,0.787-1.315,1.018-1.701c0.231-0.385,0.396-0.63,0.494-0.735
            c0.098-0.104,0.195-0.157,0.294-0.157c0.084,0,0.199,0.018,0.347,0.053c0.146,0.035,0.294,0.077,0.44,0.126
            c0.147,0.049,0.273,0.102,0.378,0.157c0.105,0.057,0.158,0.105,0.158,0.147c0,0.154-0.011,0.297-0.032,0.431
            c-0.021,0.133-0.031,0.248-0.031,0.346c0,0.435,0.049,0.991,0.147,1.67c0.098,0.679,0.22,1.4,0.367,2.163
            c0.146,0.763,0.308,1.536,0.483,2.32c0.175,0.784,0.336,1.502,0.482,2.152c0.147,0.651,0.27,1.194,0.367,1.628
            c0.099,0.434,0.147,0.692,0.147,0.776s-0.056,0.161-0.168,0.231s-0.241,0.13-0.389,0.179c-0.146,0.049-0.283,0.091-0.409,0.126
            c-0.126,0.034-0.21,0.053-0.252,0.053c-0.126,0-0.214-0.028-0.263-0.084c-0.049-0.057-0.088-0.183-0.115-0.379
            c-0.112-0.951-0.245-1.886-0.399-2.803s-0.312-1.807-0.473-2.667c-0.161-0.861-0.318-1.688-0.473-2.479s-0.28-1.536-0.378-2.236
            c-0.924,1.414-1.658,2.555-2.205,3.423c-0.546,0.868-0.966,1.558-1.26,2.068c-0.294,0.512-0.486,0.893-0.577,1.145
            c-0.092,0.252-0.144,0.47-0.157,0.651c-0.015,0.238-0.07,0.396-0.168,0.473c-0.099,0.077-0.245,0.115-0.441,0.115
            s-0.336-0.042-0.42-0.126s-0.183-0.266-0.294-0.546c-0.057-0.126-0.176-0.347-0.357-0.662c-0.182-0.314-0.402-0.675-0.661-1.081
            c-0.26-0.406-0.543-0.84-0.851-1.302c-0.309-0.462-0.609-0.91-0.903-1.344c-0.294-0.435-0.563-0.837-0.809-1.208
            s-0.438-0.661-0.577-0.871c-0.042,0.168-0.112,0.497-0.21,0.986c-0.099,0.49-0.21,1.054-0.336,1.69
            c-0.126,0.638-0.256,1.31-0.389,2.017s-0.256,1.365-0.367,1.974c-0.112,0.609-0.203,1.131-0.273,1.564
            c-0.07,0.435-0.104,0.693-0.104,0.777c0,0.112,0.014,0.224,0.042,0.336c0.027,0.112,0.042,0.224,0.042,0.336
            c0,0.056-0.032,0.108-0.095,0.157c-0.063,0.049-0.165,0.074-0.305,0.074c-0.336,0-0.641-0.035-0.913-0.105
            c-0.273-0.07-0.41-0.224-0.41-0.462c0-0.112,0.035-0.27,0.105-0.473c0.069-0.203,0.168-0.493,0.294-0.871
            c0.07-0.224,0.168-0.578,0.294-1.061c0.126-0.483,0.259-1.036,0.399-1.659c0.14-0.623,0.283-1.277,0.43-1.964
            c0.147-0.686,0.28-1.337,0.399-1.953c0.119-0.615,0.217-1.165,0.294-1.648c0.077-0.482,0.115-0.829,0.115-1.039
            c0-0.238-0.035-0.402-0.104-0.493c-0.07-0.092-0.105-0.221-0.105-0.389c0-0.154,0.105-0.256,0.315-0.305s0.469-0.073,0.776-0.073
            c0.238,0,0.396,0.024,0.473,0.073s0.13,0.15,0.158,0.305c0.042,0.21,0.16,0.504,0.356,0.882s0.434,0.802,0.714,1.271
            s0.585,0.959,0.914,1.47c0.328,0.512,0.647,0.994,0.955,1.449s0.588,0.864,0.84,1.229s0.441,0.637,0.567,0.819l1.197-1.911
            C236.184,101.748,236.807,100.729,237.255,99.98z"></path>
    </g>
</svg>